<?xml version="1.0" encoding="utf-8"?>
<!-- Generator: Adobe Illustrator 21.0.0, SVG Export Plug-In . SVG Version: 6.00 Build 0)  -->
<svg version="1.1" id="Layer_1" xmlns="http://www.w3.org/2000/svg" xmlns:xlink="http://www.w3.org/1999/xlink" x="0px" y="0px"
	 viewBox="0 0 50 62.5" style="enable-background:new 0 0 50 62.5;" xml:space="preserve">
<style type="text/css">
	.st0{fill:none;stroke:#000000;stroke-width:2;stroke-miterlimit:10;}
	.st1{fill:none;stroke:#000000;stroke-width:2;stroke-miterlimit:10;stroke-dasharray:2,3;}
</style>
<g>
	<g>
		<path class="st0" d="M35,48L35,48c-3.3,0-6-2.7-6-6V25h12v17C41,45.3,38.3,48,35,48z"/>
		<line class="st0" x1="35" y1="25" x2="35" y2="8"/>
		<polygon class="st0" points="37,6 35,8 33,6 34,2 36,2 		"/>
		<line class="st0" x1="29" y1="31" x2="41" y2="31"/>
		<line class="st1" x1="35" y1="35" x2="35" y2="42"/>
	</g>
	<g>
		<path class="st0" d="M20,13.7v23.6c-1.2-1.1-2.8-1.8-4.5-1.8s-3.3,0.7-4.5,1.8V13.7c1.2,1.1,2.8,1.8,4.5,1.8S18.8,14.8,20,13.7z"
			/>
		<path class="st0" d="M22,9c0,1.8-0.8,3.5-2,4.7c-1.2,1.1-2.8,1.8-4.5,1.8s-3.3-0.7-4.5-1.8C9.8,12.5,9,10.8,9,9c0-2.7,1.7-5,4-6
			v5.5l2.5,2l2.5-2V3C20.3,4,22,6.3,22,9z"/>
		<path class="st0" d="M22,42c0,2.7-1.7,5-4,6v-5.5l-2.5-2l-2.5,2V48c-2.3-1-4-3.3-4-6c0-1.8,0.8-3.5,2-4.7c1.2-1.1,2.8-1.8,4.5-1.8
			s3.3,0.7,4.5,1.8C21.2,38.5,22,40.2,22,42z"/>
	</g>
</g>
</svg>
