<?xml version="1.0" encoding="utf-8"?>
<!-- Generator: Adobe Illustrator 21.0.0, SVG Export Plug-In . SVG Version: 6.00 Build 0)  -->
<svg version="1.1" id="Layer_1" xmlns="http://www.w3.org/2000/svg" xmlns:xlink="http://www.w3.org/1999/xlink" x="0px" y="0px"
	 viewBox="0 0 512 640" style="enable-background:new 0 0 512 640;" xml:space="preserve">

	  <style type="text/css">
    <![CDATA[
	path {
		stroke: white;
		fill: none;
		stroke-linecap:round;
		stroke-linejoin:round;
		stroke-width: 10;
		/*stroke-dasharray: 50 10;*/
		animation: draw 5s infinite linear;


	}
    
	.firstp {

	stroke-dasharray: 800;
    stroke-dashoffset: 800;

	}
    .secondp {
	stroke-dasharray: 600;
    stroke-dashoffset: 600;

	}
	@keyframes draw {
  to {
    stroke-dashoffset: 0;
  }
}
    ]]>
	
  </style>

<g>
	<g>
		<g>
			<path class="secondp" d="M16,445.8c-5.5,0-10-4.5-10-10V333c0-5.5,4.5-10,10-10h8.1c5.5,0,10,4.5,10,10v77.1c0,5.5,4.5,10,10,10h12.8
				c5.5,0,10,4.5,10,10v5.7c0,5.5-4.5,10-10,10H16z"/>
		</g>
		<g>
			<path class="secondp" d="M89.4,445.8c-5.5,0-10-4.5-10-10V333c0-5.5,4.5-10,10-10h7.9c5.5,0,10,4.5,10,10v102.8c0,5.5-4.5,10-10,10H89.4z"/>
		</g>
		<g>
			<path class="secondp" d="M192.6,444.3c-5.4,3.2-12.4,4.8-20.8,4.8c-7.2,0-13.7-1.6-19.5-4.8c-5.8-3.2-10.8-7.6-15-13.4
				c-4.2-5.7-7.4-12.5-9.7-20.5c-2.3-7.9-3.5-16.6-3.5-26.1c0-9.6,1.2-18.4,3.5-26.4c2.3-8,5.5-14.8,9.7-20.5
				c4.2-5.7,9.2-10.1,15-13.2c5.8-3.1,12.3-4.7,19.5-4.7c8.2,0,15.1,1.5,20.6,4.4c5.5,2.9,6.3,3.8,6.3,3.8c3.8,4,4.3,10.8,1,15.2
				l-3,4.1c-3.3,4.4-7.9,5.8-10.4,3.1c0,0,0,0-2.6-1.6c-2.6-1.6-5.9-2.4-9.8-2.4c-3.7,0-6.9,1-9.6,2.9c-2.7,2-5,4.7-6.9,8.1
				c-1.9,3.4-3.3,7.5-4.2,12.1c-0.9,4.7-1.4,9.7-1.4,15c0,5.3,0.5,10.3,1.4,14.9c0.9,4.6,2.3,8.7,4.2,12.1c1.9,3.5,4.2,6.2,7,8.2
				c2.8,2,6,2.9,9.7,2.9c3.7,0,6.9-0.9,9.7-2.8c2.8-1.8,2.8-1.8,2.8-1.8c2.1-2.6,6.6-1.2,10.1,3.1l2.9,3.6
				c3.4,4.3,3.3,11.2-0.4,15.3C199.1,439.9,198,441.1,192.6,444.3z"/>
		</g>
		<g>
			<path class="secondp" d="M284.1,445.8c-5.5,0-10-4.5-10-10v-31.3c0-5.5-4.5-10-10-10h-8.6c-5.5,0-10,4.5-10,10v31.3c0,5.5-4.5,10-10,10h-7.6
				c-5.5,0-10-4.5-10-10V333c0-5.5,4.5-10,10-10h7.6c5.5,0,10,4.5,10,10v26.5c0,5.5,4.5,10,10,10h8.6c5.5,0,10-4.5,10-10V333
				c0-5.5,4.5-10,10-10h7.6c5.5,0,10,4.5,10,10v102.8c0,5.5-4.5,10-10,10H284.1z"/>
		</g>
		<g>
			<path class="secondp" d="M388,445.8c-5.5,0-11-4.4-12.2-9.8l-0.6-2.9c-1.2-5.4-6.7-9.8-12.2-9.8h-7.6c-5.5,0-11,4.4-12.2,9.8l-0.6,2.9
				c-1.2,5.4-6.7,9.8-12.2,9.8h-7.7c-5.5,0-8.9-4.4-7.6-9.7l25.1-103.4c1.3-5.3,6.9-9.7,12.4-9.7h14.9c5.5,0,11.1,4.4,12.3,9.7
				l25,103.3c1.3,5.3-2.2,9.7-7.7,9.7H388z M361.5,359.5c-1-5.4-2-9.8-2.2-9.8s-1.2,4.4-2.3,9.8l-6.5,32.6c-1.1,5.4,2.5,9.8,8,9.8h1
				c5.5,0,9.2-4.4,8.1-9.8L361.5,359.5z"/>
		</g>
		<g>
			<path class="secondp" d="M506,384c0,9.7-1.1,18.6-3.3,26.6c-2.2,8-5.3,14.9-9.4,20.6c-4,5.7-9,10.1-14.8,13.2c-5.8,3.1-12.4,4.7-19.7,4.7
				s-13.8-1.6-19.7-4.7c-5.8-3.1-10.8-7.5-14.8-13.2c-4-5.7-7.2-12.5-9.4-20.6c-2.2-8-3.3-16.9-3.3-26.6c0-9.7,1.1-18.5,3.2-26.4
				c2.1-7.9,5.2-14.7,9.3-20.3c4-5.6,9-9.9,14.8-13c5.8-3.1,12.5-4.6,19.9-4.6c7.3,0,13.8,1.5,19.7,4.6c5.8,3.1,10.8,7.4,14.8,13
				c4,5.6,7.2,12.4,9.4,20.3C504.9,365.5,506,374.3,506,384z M477.6,384c0-5.3-0.4-10.3-1.2-14.8c-0.8-4.6-2-8.5-3.6-11.9
				c-1.6-3.4-3.5-6-5.8-7.9c-2.3-1.9-5-2.9-8.2-2.9c-3.1,0-5.9,1-8.2,2.9c-2.4,1.9-4.3,4.5-5.9,7.9c-1.6,3.4-2.7,7.3-3.5,11.9
				c-0.8,4.6-1.1,9.5-1.1,14.8c0,5.3,0.4,10.3,1.1,14.9c0.8,4.6,1.9,8.6,3.5,12c1.6,3.4,3.5,6,5.9,8c2.4,2,5.1,2.9,8.2,2.9
				c3.1,0,5.8-1,8.2-2.9c2.3-2,4.2-4.6,5.8-8c1.6-3.4,2.7-7.3,3.6-12C477.2,394.3,477.6,389.3,477.6,384z"/>
		</g>
	</g>
	<g>
		<g>
			<path class="firstp" d="M98.3,96.4c-4.4,6.3-10.9,8.8-14.3,5.5c0,0,0,0-3.8-1.8c-3.8-1.8-7.8-2.7-11.9-2.7c-4.3,0-8.2,1.4-11.6,4.1
				c-3.4,2.7-5.1,7.2-5.1,13.4c0,5.3,1.7,9.4,5.2,12.3c3.5,2.9,3.5,2.9,3.5,2.9c6.6,3.7,15.6,8.6,19.9,10.9c0,0,0,0,4.2,2.6
				c4.2,2.6,8.1,5.9,11.7,9.7c3.5,3.8,6.4,8.4,8.8,13.7c2.3,5.3,3.5,11.7,3.5,19c0,9.1-1.4,17.1-4.3,24c-2.9,6.9-6.8,12.7-11.6,17.2
				c-4.9,4.5-10.5,8-16.9,10.3c-6.4,2.3-13,3.5-19.9,3.5c-10.2,0-19.4-1.9-27.8-5.7c-8.4-3.8-9.3-4.6-9.3-4.6c-6-4.8-7.3-14-3-20.4
				l3.8-5.5c4.3-6.4,11.4-8.5,15.8-4.7c0,0,0,0,4.8,2.3c4.8,2.3,9.6,3.5,14.6,3.5c4.6,0,8.5-1.5,11.7-4.5c3.2-3,4.8-7.2,4.8-12.6
				c0-5.6-1.9-10-5.7-13.2c-3.8-3.3-4.5-3.6-4.5-3.6c-6.7-3.7-16.3-8.9-21.2-11.5c0,0,0,0-4.1-2.7c-4.1-2.7-7.6-6-10.7-9.8
				c-3.1-3.8-5.5-8.3-7.3-13.4c-1.8-5.1-2.6-11.1-2.6-18.1c0-9.4,1.6-17.5,4.7-24.2c3.1-6.8,7.2-12.3,12.2-16.6s10.6-7.5,16.7-9.5
				c6.1-2.1,12.3-3.1,18.5-3.1c9.2,0,17.5,1.5,24.8,4.5c7.3,3,7.7,3.3,7.7,3.3c5.9,5,7.1,14.2,2.6,20.5L98.3,96.4z"/>
		</g>
		<g>
			<path class="firstp" d="M221.6,236.4c-7.7,0-14-6.3-14-14v-42.6c0-7.7-6.3-14-14-14h-11.4c-7.7,0-14,6.3-14,14v42.6c0,7.7-6.3,14-14,14h-9.9
				c-7.7,0-14-6.3-14-14V81.5c0-7.7,6.3-14,14-14h9.9c7.7,0,14,6.3,14,14v36c0,7.7,6.3,14,14,14h11.4c7.7,0,14-6.3,14-14v-36
				c0-7.7,6.3-14,14-14h9.9c7.7,0,14,6.3,14,14v140.9c0,7.7-6.3,14-14,14H221.6z"/>
		</g>
		<g>
			<path class="firstp" d="M289.6,236.4c-7.7,0-14-6.3-14-14V81.5c0-7.7,6.3-14,14-14h53.6c7.7,0,14,6.3,14,14v5.6c0,7.7-6.3,14-14,14h-17.1
				c-7.7,0-14,6.3-14,14v5.2c0,7.7,6.3,14,14,14h13.5c7.7,0,14,6.3,14,14v3.5c0,7.7-6.3,14-14,14h-13.5c-7.7,0-14,6.3-14,14v8.3
				c0,7.7,6.3,14,14,14h20c7.7,0,14,6.3,14,14v6.4c0,7.7-6.3,14-14,14H289.6z"/>
		</g>
		<g>
			<path class="firstp" d="M469.5,236.4c-7.7,0-16.2-5.9-19-13.1l-29.2-76.7c-2.7-7.2-5.1-13.1-5.3-13.1c-0.2,0-0.3,6.3-0.2,14l0.7,74.8
				c0.1,7.7-6.2,14-13.9,14h-6.1c-7.7,0-14-6.3-14-14V81.5c0-7.7,6.3-14,14-14h14c7.7,0,16.2,5.9,18.9,13.1l29.1,78
				c2.7,7.2,5.1,13.1,5.3,13.1s0.3-6.3,0.3-14l-0.5-76.3c-0.1-7.7,6.2-14,13.9-14h4.9c7.7,0,14,6.3,14,14v140.9c0,7.7-6.3,14-14,14
				H469.5z"/>
		</g>
	</g>
</g>
</svg>
