<?xml version="1.0" encoding="utf-8"?>
<!-- Generator: Adobe Illustrator 24.2.3, SVG Export Plug-In . SVG Version: 6.00 Build 0)  -->
<svg version="1.1" id="Layer_1" xmlns="http://www.w3.org/2000/svg" xmlns:xlink="http://www.w3.org/1999/xlink" x="0px" y="0px"
	 viewBox="0 0 1000 500" style="enable-background:new 0 0 1000 500;" xml:space="preserve">
<path d="M185.64,332.22h115.9h4.44c12.31,0.45,18.46,5.92,18.46,16.41c0,6.61-2.56,12.19-7.69,16.75
	c-5.13,4.56-11.34,6.84-18.63,6.84h-4.44h-124.1l-2.05,4.79c-3.42,7.75-6.38,14.24-8.89,19.49c-2.51,5.24-4.9,9.69-7.18,13.33
	c-2.28,3.64-4.5,6.89-6.67,9.74c-2.17,2.85-4.62,5.75-7.35,8.72c-9.35,10.03-20.06,17.72-32.14,23.08
	c-12.08,5.35-24.62,8.03-37.61,8.03c-9.8,0-18.8-1.54-27.01-4.62c-8.21-3.08-15.33-7.35-21.37-12.82
	c-6.04-5.47-10.77-12.02-14.19-19.66C1.71,414.67,0,406.41,0,397.52c0-6.38,0.85-12.54,2.56-18.46c1.71-5.93,4.16-11.4,7.35-16.41
	c3.19-5.02,7.01-9.46,11.45-13.33c4.44-3.88,9.4-6.96,14.87-9.23c12.31-5.25,26.89-7.86,43.76-7.86h58.8l49.92-122.74h-20.17h-4.44
	c-12.31-0.45-18.46-5.92-18.46-16.41c0-6.61,2.56-12.19,7.69-16.75c5.13-4.56,11.34-6.84,18.63-6.84h4.44h28.38l7.86-18.8
	c7.29-18.46,16.35-32.08,27.18-40.86c10.82-8.77,23.87-13.16,39.15-13.16c7.75,0,14.87,1.26,21.37,3.76
	c6.5,2.51,12.14,5.98,16.92,10.43c4.79,4.44,8.55,9.74,11.28,15.9c2.74,6.15,4.1,12.88,4.1,20.17c0,9.35-1.94,17.84-5.81,25.47
	c-3.88,7.64-9.29,14.19-16.24,19.66c-6.96,5.47-15.33,9.74-25.13,12.82c-9.8,3.08-20.51,4.62-32.14,4.62H235.9L185.64,332.22z
	 M78.63,372.22c-4.33,0-7.58,0.17-9.74,0.51c-2.17,0.34-4.5,0.85-7.01,1.54c-5.02,1.82-8.95,4.56-11.79,8.21
	c-2.85,3.64-4.27,7.98-4.27,12.99c0,6.38,2.39,11.74,7.18,16.07c4.79,4.33,10.6,6.5,17.44,6.5c10.26,0,20-4.05,29.23-12.14
	c9.23-8.09,16.81-19.32,22.74-33.68H78.63z M259.83,169.48c3.42,0,7.18-0.57,11.28-1.71c4.1-1.14,7.52-2.62,10.26-4.44
	c2.51-1.59,4.56-3.87,6.15-6.84c1.59-2.96,2.39-5.92,2.39-8.89c0-3.64-1.14-6.72-3.42-9.23c-2.28-2.51-5.25-3.76-8.89-3.76
	c-4.1,0-7.75,1.83-10.94,5.47c-3.19,3.65-6.5,9.57-9.92,17.78l-4.79,11.62H259.83z"/>
<path d="M370.6,290.17h4.1c11.39,0.46,17.09,5.47,17.09,15.04c0,5.93-2.39,11-7.18,15.21c-4.79,4.22-10.49,6.32-17.09,6.32h-4.1
	H337.1c-10.26,0-18.12-1.93-23.59-5.81c-5.47-3.87-8.21-9.46-8.21-16.75c0-2.28,0.22-4.27,0.68-5.98c0.45-1.71,1.37-4.39,2.73-8.03
	l27.69-67.69l1.71-4.44c5.24-12.53,13.56-18.8,24.96-18.8c4.79,0,8.83,1.54,12.14,4.62c3.3,3.08,4.96,6.9,4.96,11.45
	c0,3.42-0.91,7.18-2.74,11.28l-1.71,4.79l-23.93,58.8H370.6z M357.61,185.21c-4.56-4.56-6.84-10.03-6.84-16.41
	c0-6.38,2.22-11.85,6.67-16.41c4.44-4.56,9.86-6.84,16.24-6.84c6.61,0,12.19,2.28,16.75,6.84c4.56,4.56,6.84,10.14,6.84,16.75
	c0,6.38-2.22,11.79-6.67,16.24c-4.44,4.44-9.97,6.67-16.58,6.67C367.64,192.05,362.17,189.77,357.61,185.21z"/>
<path d="M445.47,326.75c-6.84,0-13.16-1.31-18.97-3.93c-5.81-2.62-10.83-6.21-15.04-10.77c-4.22-4.56-7.47-10.09-9.74-16.58
	c-2.28-6.5-3.42-13.73-3.42-21.71c0-10.26,1.93-20.05,5.81-29.4c3.87-9.34,9.11-17.55,15.73-24.62c6.61-7.06,14.3-12.65,23.08-16.75
	c8.77-4.1,18.06-6.15,27.86-6.15c13.22,0,23.87,3.65,31.97,10.94c8.09,7.3,12.14,16.98,12.14,29.06c0,7.98-2.05,14.59-6.15,19.83
	c-4.1,5.25-9.46,7.86-16.07,7.86c-4.56,0-8.26-1.37-11.11-4.1c-2.85-2.73-4.16-6.04-3.93-9.91v-7.52c0.22-3.19-0.74-5.87-2.91-8.03
	c-2.17-2.16-4.85-3.25-8.03-3.25c-3.65,0-7.24,1.03-10.77,3.08c-3.54,2.05-6.67,4.79-9.4,8.21c-2.73,3.42-4.9,7.3-6.5,11.62
	c-1.6,4.33-2.39,8.89-2.39,13.68c0,9.8,3.3,16.19,9.91,19.15c2.05,0.68,5.24,1.31,9.57,1.88c4.33,0.57,8.43,0.85,12.31,0.85h31.45
	h4.1c11.39,0.46,17.09,5.47,17.09,15.04c0,5.93-2.39,11-7.18,15.21c-4.79,4.22-10.49,6.32-17.09,6.32h-3.76H445.47z"/>
<path d="M622.05,201.45c2.62-1.25,4.96-2.22,7.01-2.91c2.05-0.68,4.04-1.14,5.98-1.37c1.93-0.22,4.16-0.34,6.67-0.34
	c10.48,0,19.15,2.96,25.98,8.89c6.84,5.93,10.26,13.33,10.26,22.22c0,2.73-0.34,5.87-1.03,9.4c-0.68,3.54-1.6,6.67-2.73,9.4
	l-17.78,43.42h19.15h4.1c11.39,0.46,17.09,5.47,17.09,15.04c0,5.93-2.39,11-7.18,15.21c-4.79,4.22-10.49,6.32-17.09,6.32h-4.1h-33.5
	c-7.3,0-13.28-2.05-17.95-6.15c-4.67-4.1-7.01-9.34-7.01-15.73c0-3.42,0.57-6.84,1.71-10.26l2.05-4.44l15.04-37.61
	c1.14-2.51,1.93-4.56,2.39-6.15c0.45-1.59,0.68-3.08,0.68-4.44c0-2.96-1.2-5.3-3.59-7.01c-2.39-1.71-5.42-2.56-9.06-2.56
	c-11.17,0-20.85,9.57-29.06,28.72l-18.46,46.15l-1.71,4.44c-5.25,12.08-13.33,18.12-24.27,18.12c-4.79,0-8.78-1.43-11.97-4.27
	c-3.19-2.85-4.79-6.55-4.79-11.11c0-3.19,0.8-6.95,2.39-11.28l2.05-4.44l72.48-179.15c3.42-8.21,7.12-14.07,11.11-17.61
	c3.99-3.53,8.94-5.3,14.87-5.3c4.79,0,8.77,1.48,11.97,4.44c3.19,2.96,4.79,6.73,4.79,11.28c0,3.19-0.8,6.96-2.39,11.28l-1.71,4.44
	l-31.8,78.29C616.29,204.36,619.43,202.71,622.05,201.45z"/>
<path d="M835.56,290.17h4.1c11.39,0.46,17.09,5.47,17.09,15.04c0,5.93-2.39,11-7.18,15.21c-4.79,4.22-10.49,6.32-17.09,6.32h-4.1
	h-21.54c-9.57,0-15.96-3.76-19.15-11.28l-3.08,2.73c-3.65,3.19-7.01,5.42-10.09,6.67c-3.08,1.26-6.78,1.88-11.11,1.88h-20.17
	c-11.85,0-21.49-4.39-28.89-13.16c-7.41-8.77-11.11-20.34-11.11-34.7c0-10.48,2.05-20.68,6.15-30.6c4.1-9.92,9.51-18.69,16.24-26.33
	c6.72-7.63,14.41-13.73,23.08-18.29c8.66-4.56,17.66-6.84,27.01-6.84c13.9,0,24.27,4.9,31.11,14.7c2.96-4.56,6.1-7.75,9.4-9.57
	c3.3-1.82,7.35-2.74,12.14-2.74s8.89,1.49,12.31,4.44c3.42,2.96,5.13,6.61,5.13,10.94c0,2.51-0.29,4.73-0.85,6.67
	c-0.57,1.94-1.77,5.19-3.59,9.74l-24.27,59.15H835.56z M790.77,251.2l1.03-2.73c0.91-1.82,1.37-3.87,1.37-6.15
	c0-3.19-1.48-5.98-4.44-8.38c-2.96-2.39-6.5-3.59-10.6-3.59s-8.26,1.31-12.48,3.93c-4.22,2.62-8.03,6.1-11.45,10.43
	c-3.42,4.33-6.21,9.12-8.38,14.36c-2.17,5.25-3.25,10.37-3.25,15.39c0,5.25,1.25,9.35,3.76,12.31c2.51,2.96,5.92,4.44,10.26,4.44
	h6.5c2.51,0,5.41-1.03,8.72-3.08c3.3-2.05,5.41-4.1,6.33-6.15L790.77,251.2z"/>
<path d="M898.29,325.38c-4.67-0.91-8.95-2.62-12.82-5.13c-7.07-4.79-12.6-11.22-16.58-19.32c-3.99-8.09-5.98-16.92-5.98-26.5
	c0-10.26,2.05-20.11,6.15-29.57c4.1-9.46,9.69-17.72,16.75-24.79c7.06-7.06,15.16-12.7,24.27-16.92c9.11-4.21,18.8-6.32,29.06-6.32
	c8.21,0,15.78,1.37,22.74,4.1c6.95,2.74,12.93,6.5,17.95,11.28c5.01,4.79,8.89,10.49,11.62,17.09c2.73,6.61,4.1,13.91,4.1,21.88
	c0,6.61-0.85,13.22-2.56,19.83c-1.71,6.61-4.1,12.88-7.18,18.8c-3.08,5.93-6.73,11.4-10.94,16.41c-4.22,5.02-8.84,9.12-13.85,12.31
	c-5.02,3.19-10.43,5.36-16.24,6.5c-5.81,1.14-13.96,1.71-24.45,1.71C910.31,326.75,902.96,326.3,898.29,325.38z M950.43,238.17
	c-3.65-3.85-8.32-5.78-14.02-5.78c-4.33,0-8.49,1.08-12.48,3.23c-3.99,2.15-7.52,5.04-10.6,8.66c-3.08,3.63-5.53,7.82-7.35,12.58
	c-1.83,4.76-2.74,9.63-2.74,14.62c0,12.46,7.06,18.69,21.2,18.69c4.1,0,7.29-0.22,9.57-0.68c2.28-0.45,4.44-1.58,6.5-3.4
	c4.33-3.17,7.98-7.99,10.94-14.44c2.96-6.46,4.44-12.75,4.44-18.87C955.9,246.9,954.07,242.02,950.43,238.17z"/>
</svg>
