<?xml version="1.0" encoding="utf-8"?>
<!-- Generator: Adobe Illustrator 21.0.0, SVG Export Plug-In . SVG Version: 6.00 Build 0)  -->
<svg version="1.1" id="Layer_1" xmlns="http://www.w3.org/2000/svg" xmlns:xlink="http://www.w3.org/1999/xlink" x="0px" y="0px"
	 viewBox="0 0 512 640" style="enable-background:new 0 0 512 640;" xml:space="preserve">
<path d="M414.2,150.2c-29.4,78.3-68,141.9-116.8,194.5c-7,7.6-6,19.5,2.1,26c53.7,42.8,116.1,76,188,97.6
	c11.6,3.5,16.4,17.3,9.5,27.2c-0.6,0.9-1.3,1.9-1.9,2.8c-4.3,6.4-12.4,9.2-19.8,7c-80.6-23.9-149.6-61.5-207.5-110.4
	c-6.6-5.6-16.2-5.6-22.8-0.1c-57.6,47.7-126.5,84-208.5,111.8c-7.8,2.6-16.4-0.4-20.8-7.4c-0.6-1-1.2-1.9-1.8-2.9
	c-6.3-9.8-1.6-22.9,9.5-26.5c75.2-24.4,138.2-56.8,191.3-98.7c8.1-6.4,9.1-18.3,2.1-26c-50-55-89.5-120.7-119.1-195.2
	c-2.7-6.7-9.2-11.1-16.5-11.1H23.8C14,138.8,6,130.8,6,121v0c0-9.8,8-17.8,17.8-17.8h464.5c9.8,0,17.8,8,17.8,17.8v0
	c0,9.8-8,17.8-17.8,17.8h-57.4C423.4,138.8,416.8,143.3,414.2,150.2z M141.7,163.9c26.4,57.7,60.4,109.7,102.4,154.7
	c7.1,7.6,19.1,7.3,26.1-0.3c39.7-43.2,71.5-94.7,96.6-154.9c4.9-11.7-3.7-24.6-16.4-24.6H157.9C145,138.8,136.3,152.1,141.7,163.9z
	 M250.9,84c-6.3-15.7-15.6-34.7-25.4-52.2C219.9,21.9,225,9.4,236,6.1l3.2-0.9c7.7-2.3,15.9,0.9,20.1,7.7
	c11,17.8,22.2,38.1,30.1,55.6c4.3,9.7-0.7,20.9-10.8,24.2c-1.9,0.6-3.8,1.2-5.7,1.8C263.9,97.3,254.4,92.7,250.9,84z"/>
</svg>
