<svg xmlns="http://www.w3.org/2000/svg" xmlns:xlink="http://www.w3.org/1999/xlink" version="1.1" x="0px" y="0px" viewBox="0 0 512 640" enable-background="new 0 0 512 512" xml:space="preserve"><g><path d="M329.4,2c-99.2,0-179.8,63.4-179.8,141.2c0,47.6,34.1,138.4,87.9,193.1v134.6c0,21.5,16.5,39.1,36.7,39.1h110.5   c20.2,0,36.7-17.5,36.7-39.1V336.3c53.8-54.7,87.9-145.5,87.9-193.1C509.2,65.4,428.6,2,329.4,2z M343.5,32.5   c33,10.5,58.7,57,58.7,110.8c0,66.7-30.3,172.9-58.7,202.2V32.5z M315.3,32.5v313c-28.4-29.4-58.7-135.6-58.7-202.2   C256.6,89.4,282.3,43,315.3,32.5z M177.8,143.2c0-43,32.5-80.4,80.1-99.5c-18.2,25.5-29.5,60.7-29.5,99.5   c0,40,14.8,129.3,43.6,186.5C218.1,286.5,177.8,193.7,177.8,143.2z M393.1,470.9c0,5.9-3.9,10.8-8.5,10.8H274.2   c-4.6,0-8.5-5-8.5-10.8v-36.2h127.4V470.9z M393.1,406.5H265.7v-46.3c19.6,13.3,41,21.3,63.7,21.3c22.7,0,44.1-8,63.7-21.3V406.5z    M386.9,329.8c28.8-57.2,43.6-146.5,43.6-186.5c0-38.8-11.3-74-29.5-99.5c47.6,19.1,80.1,56.5,80.1,99.5   C481,193.7,440.7,286.5,386.9,329.8z"/><path d="M41.6,61.4h77.6c7.8,0,14.1-6.3,14.1-14.1s-6.3-14.1-14.1-14.1H41.6c-7.8,0-14.1,6.3-14.1,14.1S33.8,61.4,41.6,61.4z"/><path d="M163.7,294.3H86.1c-7.8,0-14.1,6.3-14.1,14.1c0,7.8,6.3,14.1,14.1,14.1h77.6c7.8,0,14.1-6.3,14.1-14.1   C177.8,300.6,171.5,294.3,163.7,294.3z"/><path d="M108.6,169.6c0-7.8-6.3-14.1-14.1-14.1H16.9c-7.8,0-14.1,6.3-14.1,14.1s6.3,14.1,14.1,14.1h77.6   C102.3,183.7,108.6,177.4,108.6,169.6z"/></g><text x="0" y="527" fill="#000000" font-size="5px" font-weight="bold" font-family="'Helvetica Neue', Helvetica, Arial-Unicode, Arial, Sans-serif">Created by Icon Fair</text><text x="0" y="532" fill="#000000" font-size="5px" font-weight="bold" font-family="'Helvetica Neue', Helvetica, Arial-Unicode, Arial, Sans-serif">from the Noun Project</text></svg>