<?xml version="1.0" encoding="utf-8"?>
<!-- Generator: Adobe Illustrator 21.0.0, SVG Export Plug-In . SVG Version: 6.00 Build 0)  -->
<svg version="1.1" id="Layer_1" xmlns="http://www.w3.org/2000/svg" xmlns:xlink="http://www.w3.org/1999/xlink" x="0px" y="0px"
	 viewBox="0 0 512 640" style="enable-background:new 0 0 512 640;" xml:space="preserve">
<path d="M422,334c-28.8,0-54.3,14-70.4,35.4l-153.1-79.7c3.8-10.6,5.9-21.9,5.9-33.7c0-11.8-2.1-23.2-5.9-33.7l153.1-79.7
	C367.7,164,393.2,178,422,178c48.5,0,88-39.5,88-88S470.5,2,422,2s-88,39.5-88,88c0,9.6,1.6,18.9,4.5,27.6l-153,79.7
	c-18.4-25.7-48.4-42.5-82.3-42.5C47.4,154.8,2,200.2,2,256s45.4,101.2,101.2,101.2c33.9,0,63.9-16.8,82.3-42.5l153,79.7
	c-2.9,8.7-4.5,17.9-4.5,27.6c0,48.5,39.5,88,88,88s88-39.5,88-88S470.5,334,422,334z M422,30.2c33,0,59.8,26.8,59.8,59.8
	S455,149.8,422,149.8S362.2,123,362.2,90S389.1,30.2,422,30.2z M103.2,329c-23.7,0-44.7-11.4-58-28.9H71c7.8,0,14.1-6.3,14.1-14.1
	c0-7.8-6.3-14.1-14.1-14.1H32c-1.1-5.1-1.8-10.4-1.8-15.9s0.7-10.8,1.8-15.9h61.4c7.8,0,14.1-6.3,14.1-14.1s-6.3-14.1-14.1-14.1
	H45.2c13.3-17.5,34.4-28.9,58-28.9c40.3,0,73,32.7,73,73S143.5,329,103.2,329z M422,481.8c-33,0-59.8-26.8-59.8-59.8
	s26.8-59.8,59.8-59.8s59.8,26.8,59.8,59.8S455,481.8,422,481.8z"/>
</svg>
