<?xml version="1.0" encoding="utf-8"?>
<!-- Generator: Adobe Illustrator 21.0.0, SVG Export Plug-In . SVG Version: 6.00 Build 0)  -->
<svg version="1.1" id="Layer_1" xmlns="http://www.w3.org/2000/svg" xmlns:xlink="http://www.w3.org/1999/xlink" x="0px" y="0px"
	 viewBox="0 0 512 640" style="enable-background:new 0 0 512 640;" xml:space="preserve">
<g>
	<path d="M457.8,253.3c33.7-27.7,52.2-63.7,52.2-102.4C510,68.8,424.3,2,318.9,2S127.7,68.8,127.7,150.9c0,4.3,0.4,8.5,0.9,12.9
		C54.9,184.5,2,239.5,2,304c0,38.6,18.4,74.7,52.2,102.4l-21.5,86.1c-1.4,5.6,0.7,11.4,5.3,14.8c4.9,3,10,3.9,15.7,0.7l96.6-58.8
		c14.1,2.5,28.5,3.8,42.9,3.8c102.9,0,187.1-63.7,191-143.2l74.2,45.2c5.7,3.1,10.9,2.6,15.7-0.7c4.6-3.4,6.7-9.2,5.3-14.8
		L457.8,253.3z M193.1,424.7c-14.5,0-28.9-1.4-42.8-4.3c-3.5-0.7-7.1-0.1-10.1,1.8L68.4,466l15.4-61.7c1.4-5.5-0.7-11.4-5.3-14.8
		c-31.1-22.9-48.2-53.3-48.2-85.5c0-66.6,73.1-120.7,162.9-120.7S356.1,237.4,356.1,304S283,424.7,193.1,424.7z M428.2,251.2
		l15.4,61.7l-63.1-38.4c0,0,0,0-0.1,0c-17.6-68-94.9-119.4-187.4-119.4c-12.6,0-25,1-36.9,2.8l0,0c-0.2-2.3-0.3-4.6-0.3-6.9
		c0-66.6,73.1-120.7,162.9-120.7S481.6,84.5,481.6,151c0,32.2-17.1,62.6-48.2,85.5C428.9,239.9,426.8,245.7,428.2,251.2z"/>
	<path d="M414,111.8H223.7c-7.8,0-14.1,6.3-14.1,14.1s6.3,14.1,14.1,14.1H414c7.8,0,14.1-6.3,14.1-14.1S421.8,111.8,414,111.8z"/>
	<path d="M288.3,256.5H98c-7.8,0-14.1,6.3-14.1,14.1s6.3,14.1,14.1,14.1h190.4c7.8,0,14.1-6.3,14.1-14.1S296.1,256.5,288.3,256.5z"
		/>
	<path d="M133.9,323H98c-7.8,0-14.1,6.3-14.1,14.1s6.3,14.1,14.1,14.1h35.9c7.8,0,14.1-6.3,14.1-14.1S141.7,323,133.9,323z"/>
	<path d="M288.3,323h-79.5c-7.8,0-14.1,6.3-14.1,14.1s6.3,14.1,14.1,14.1h79.5c7.8,0,14.1-6.3,14.1-14.1S296.1,323,288.3,323z"/>
</g>
</svg>
