<svg xmlns="http://www.w3.org/2000/svg" xmlns:xlink="http://www.w3.org/1999/xlink" version="1.1" x="0px" y="0px" viewBox="0 0 512 640" enable-background="new 0 0 512 512" xml:space="preserve"><g><path d="M256,134.7c-66.9,0-121.3,54.4-121.3,121.3c0,66.9,54.4,121.3,121.3,121.3S377.3,322.9,377.3,256   C377.3,189.1,322.9,134.7,256,134.7z M256,349.1c-36.4,0-67.8-21-83.1-51.5h34.5c7.8,0,14.1-6.3,14.1-14.1   c0-7.8-6.3-14.1-14.1-14.1H164c-0.6-4.4-1.1-8.8-1.1-13.3c0-5.1,0.5-10,1.3-14.9h85.4c7.8,0,14.1-6.3,14.1-14.1   c0-7.8-6.3-14.1-14.1-14.1h-76.1c15.6-29.7,46.6-50,82.4-50c51.3,0,93.1,41.7,93.1,93.1C349.1,307.3,307.3,349.1,256,349.1z"/><path d="M495.9,202h-53.5c-4-13.8-9.5-27-16.4-39.6l37.8-37.8c5.5-5.5,5.5-14.4,0-20l-56.4-56.4c-5.5-5.5-14.4-5.5-20,0L349.6,86   C337.1,79,323.8,73.6,310,69.6V16.1C310,8.3,303.7,2,295.9,2h-79.8C208.3,2,202,8.3,202,16.1v53.5c-13.8,4-27,9.5-39.6,16.4   l-37.8-37.8c-5.5-5.5-14.4-5.5-20,0l-56.4,56.4c-5.7,5.1-5.6,14.2,0,20L86,162.4C79,174.9,73.6,188.2,69.6,202H16.1   C8.3,202,2,208.3,2,216.1v79.8c0,7.8,6.3,14.1,14.1,14.1h53.5c4,13.8,9.5,27,16.4,39.6l-37.8,37.8c-5.8,5.5-5.2,14.7,0,20   l56.4,56.4c5.5,5.5,14.4,5.5,20,0l37.8-37.8c12.6,6.9,25.8,12.4,39.6,16.4v53.5c0,7.8,6.3,14.1,14.1,14.1h79.8   c7.8,0,14.1-6.3,14.1-14.1v-53.5c13.8-4,27-9.5,39.6-16.4l37.8,37.8c5.5,5.5,14.4,5.5,20,0l56.4-56.4c5.5-5.5,5.5-14.4,0-20   L426,349.6c6.9-12.6,12.4-25.8,16.4-39.6h53.5c7.8,0,14.1-6.3,14.1-14.1v-79.8C510,208.3,503.7,202,495.9,202z M481.8,281.8h-50.3   c-6.6,0-12.3,4.6-13.8,11c-4.1,18.3-11.3,35.6-21.4,51.5c-3.5,5.6-2.7,12.8,2,17.5l35.6,35.6l-36.5,36.5l-35.6-35.6   c-4.7-4.7-11.9-5.5-17.5-2c-15.9,10-33.2,17.2-51.5,21.4c-6.4,1.5-11,7.2-11,13.8v50.3h-51.6v-50.3c0-6.6-4.6-12.3-11-13.8   c-18.3-4.1-35.6-11.3-51.5-21.4c-5.6-3.5-12.9-2.7-17.5,2l-35.6,35.6l-36.5-36.5l35.6-35.6c4.7-4.7,5.5-11.9,2-17.5   c-10-15.9-17.2-33.2-21.4-51.5c-1.5-6.4-7.2-11-13.8-11H30.2v-51.6h50.3c6.6,0,12.3-4.6,13.8-11c4.1-18.3,11.3-35.6,21.4-51.5   c3.5-5.6,2.7-12.8-2-17.5l-35.6-35.6l36.5-36.5l35.6,35.6c4.7,4.7,11.9,5.5,17.5,2c15.9-10,33.2-17.2,51.5-21.4   c6.4-1.5,11-7.2,11-13.8V30.2h51.6v50.3c0,6.6,4.6,12.3,11,13.8c18.3,4.1,35.7,11.3,51.5,21.4c5.6,3.5,12.9,2.7,17.5-2l35.6-35.6   l36.5,36.5l-35.6,35.6c-4.7,4.7-5.5,11.9-2,17.5c10,15.9,17.2,33.2,21.4,51.5c1.5,6.4,7.2,11,13.8,11h50.3V281.8z"/></g><text x="0" y="527" fill="#000000" font-size="5px" font-weight="bold" font-family="'Helvetica Neue', Helvetica, Arial-Unicode, Arial, Sans-serif">Created by Icon Fair</text><text x="0" y="532" fill="#000000" font-size="5px" font-weight="bold" font-family="'Helvetica Neue', Helvetica, Arial-Unicode, Arial, Sans-serif">from the Noun Project</text></svg>