<?xml version="1.0" encoding="utf-8"?>
<!-- Generator: Adobe Illustrator 21.0.0, SVG Export Plug-In . SVG Version: 6.00 Build 0)  -->
<svg version="1.1" id="Layer_1" xmlns="http://www.w3.org/2000/svg" xmlns:xlink="http://www.w3.org/1999/xlink" x="0px" y="0px"
	 viewBox="0 0 512 640" style="enable-background:new 0 0 512 640;" xml:space="preserve">
<g>
	<path d="M343.8,58.4c-22.7,0-44.6,7-63.3,20.2c-6.4,4.5-7.9,13.3-3.4,19.7c4.5,6.4,13.3,7.9,19.7,3.4c13.9-9.8,30.1-15,47-15
		c45,0,81.6,36.6,81.6,81.6c0,7.8,6.3,14.1,14.1,14.1s14.1-6.3,14.1-14.1C453.6,107.7,404.3,58.4,343.8,58.4z"/>
	<path d="M343.8,2c-31.2,0-61.4,8.7-87.8,25.2C229.6,10.7,199.5,2,168.2,2C76.6,2,2,76.6,2,168.2c0,153.8,235.5,331.5,245.6,339
		c5.6,3.8,11.3,3.7,17-0.1c10-7.6,245.4-189,245.4-338.9C510,76.6,435.4,2,343.8,2z M255.9,478c-26-20.6-105.9-86.4-163.2-163.1H139
		c7.8,0,14.1-6.3,14.1-14.1s-6.3-14.1-14.1-14.1H73c-9-14-17-28.1-23.5-42.3h141.8c7.8,0,14.1-6.3,14.1-14.1s-6.3-14.1-14.1-14.1
		h-153c-5.2-16.2-8.1-32.3-8.1-47.9c0-76.1,61.9-138,138-138c28.6,0,56.1,8.8,79.6,25.4c4.9,3.5,11.4,3.5,16.3,0
		c23.5-16.6,51-25.4,79.6-25.4c76.1,0,138,61.9,138,138C481.8,289.2,298,444.1,255.9,478z"/>
</g>
</svg>
