<svg xmlns="http://www.w3.org/2000/svg" xmlns:xlink="http://www.w3.org/1999/xlink" version="1.1" x="0px" y="0px" viewBox="0 0 50 62.5" style="enable-background:new 0 0 50 50;" xml:space="preserve"><style type="text/css">
	.st0{fill:none;stroke:#000000;stroke-width:2;stroke-miterlimit:10;}
	.st1{fill:none;stroke:#000000;stroke-width:2;stroke-linejoin:round;stroke-miterlimit:10;}
	.st2{fill:none;stroke:#000000;stroke-width:2;stroke-miterlimit:10;stroke-dasharray:2,2;}
	.st3{fill:none;stroke:#000000;stroke-width:2;stroke-linecap:round;stroke-linejoin:round;stroke-miterlimit:10;}
	.st4{fill:none;stroke:#000000;stroke-width:2;stroke-linecap:round;stroke-miterlimit:10;}
	.st5{fill:none;stroke:#000000;stroke-width:2;stroke-linejoin:bevel;stroke-miterlimit:10;}
	.st6{fill:none;stroke:#000000;stroke-width:2;stroke-linejoin:round;stroke-miterlimit:10;stroke-dasharray:2,2;}
	.st7{fill:none;stroke:#000000;stroke-width:2;stroke-miterlimit:10;stroke-dasharray:2,3;}
</style><g><polygon class="st0" points="40,24 36,24 36,7.4 38,5 40,7.4  "/><line class="st0" x1="36" y1="20" x2="40" y2="20"/><line class="st0" x1="36" y1="10" x2="40" y2="10"/><g><polyline class="st0" points="40,8 48,8 48,41 2,41 2,8 10,8   "/><g><line class="st0" x1="17" y1="41" x2="17" y2="48"/><line class="st0" x1="33" y1="41" x2="33" y2="48"/></g><line class="st0" x1="12" y1="48" x2="38" y2="48"/><line class="st0" x1="48" y1="35" x2="2" y2="35"/></g><g><rect x="14" y="6" class="st0" width="14" height="9"/><line class="st0" x1="14" y1="15" x2="28" y2="6"/><line class="st0" x1="28" y1="15" x2="14" y2="6"/></g><line class="st0" x1="43" y1="28" x2="7" y2="28"/><rect x="10" y="2" class="st0" width="22" height="26"/><line class="st0" x1="13.3" y1="20" x2="28.7" y2="20"/><line class="st0" x1="16.6" y1="24" x2="25.4" y2="24"/></g><text x="0" y="65" fill="#000000" font-size="5px" font-weight="bold" font-family="'Helvetica Neue', Helvetica, Arial-Unicode, Arial, Sans-serif">Created by Dinosoft Labs</text><text x="0" y="70" fill="#000000" font-size="5px" font-weight="bold" font-family="'Helvetica Neue', Helvetica, Arial-Unicode, Arial, Sans-serif">from the Noun Project</text></svg>