<?xml version="1.0" encoding="utf-8"?>
<!-- Generator: Adobe Illustrator 21.0.0, SVG Export Plug-In . SVG Version: 6.00 Build 0)  -->
<svg version="1.1" id="Layer_1" xmlns="http://www.w3.org/2000/svg" xmlns:xlink="http://www.w3.org/1999/xlink" x="0px" y="0px"
	 viewBox="0 0 512 640" style="enable-background:new 0 0 512 640;" xml:space="preserve">
<g>
	<path d="M467.7,2H44.3C21,2,2,21,2,44.3v423.3C2,491,21,510,44.3,510h423.3c23.3,0,42.3-19,42.3-42.3V44.3C510,21,491,2,467.7,2z
		 M481.8,467.7c0,7.8-6.3,14.1-14.1,14.1H44.3c-7.8,0-14.1-6.3-14.1-14.1V44.3c0-7.8,6.3-14.1,14.1-14.1h423.3
		c7.8,0,14.1,6.3,14.1,14.1v423.4H481.8z"/>
	<path d="M126.2,246.4v-184c0-7.8-6.3-14.1-14.1-14.1S98,54.6,98,62.4v184c-21.2,6.1-36.7,25.7-36.7,48.8
		c0,23.1,15.5,42.6,36.7,48.8v105.7c0,7.8,6.3,14.1,14.1,14.1s14.1-6.3,14.1-14.1V343.9c21.2-6.1,36.7-25.6,36.7-48.8
		C162.9,272,147.4,252.5,126.2,246.4z M112.1,317.7c-12.5,0-22.6-10.1-22.6-22.6s10.1-22.6,22.6-22.6c12.4,0,22.6,10.1,22.6,22.6
		S124.6,317.7,112.1,317.7z"/>
	<path d="M258.8,149.4c0-23.1-15.5-42.6-36.7-48.8V62.4c0-7.8-6.3-14.1-14.1-14.1s-14.1,6.3-14.1,14.1v38.2
		c-21.2,6.1-36.7,25.6-36.7,48.8s15.5,42.6,36.7,48.8v251.4c0,7.8,6.3,14.1,14.1,14.1s14.1-6.3,14.1-14.1V198.2
		C243.3,192,258.8,172.5,258.8,149.4z M208,172c-12.5,0-22.6-10.1-22.6-22.6c0-12.4,10.1-22.6,22.6-22.6c12.4,0,22.6,10.1,22.6,22.6
		C230.6,161.8,220.5,172,208,172z"/>
	<path d="M318.1,313.8V62.4c0-7.8-6.3-14.1-14.1-14.1s-14.1,6.3-14.1,14.1v251.4c-21.2,6.1-36.7,25.6-36.7,48.8s15.5,42.6,36.7,48.8
		v38.2c0,7.8,6.3,14.1,14.1,14.1s14.1-6.3,14.1-14.1v-38.2c21.2-6.1,36.7-25.7,36.7-48.8S339.2,320,318.1,313.8z M304,385.2
		c-12.5,0-22.6-10.1-22.6-22.6c0-12.4,10.1-22.6,22.6-22.6c12.4,0,22.6,10.1,22.6,22.6C326.5,375,316.4,385.2,304,385.2z"/>
	<path d="M414,149.5V62.4c0-7.8-6.3-14.1-14.1-14.1c-7.8,0-14.1,6.3-14.1,14.1v87.1c-21.2,6.1-36.7,25.6-36.7,48.8
		s15.5,42.6,36.7,48.8v202.6c0,7.8,6.3,14.1,14.1,14.1c7.8,0,14.1-6.3,14.1-14.1V247c21.2-6.1,36.7-25.7,36.7-48.8
		S435.1,155.6,414,149.5z M399.9,220.8c-12.5,0-22.6-10.1-22.6-22.6c0-12.4,10.1-22.6,22.6-22.6c12.4,0,22.6,10.1,22.6,22.6
		S412.3,220.8,399.9,220.8z"/>
</g>
</svg>
