<?xml version="1.0" encoding="utf-8"?>
<!-- Generator: Adobe Illustrator 21.0.0, SVG Export Plug-In . SVG Version: 6.00 Build 0)  -->
<svg version="1.1" id="Layer_1" xmlns="http://www.w3.org/2000/svg" xmlns:xlink="http://www.w3.org/1999/xlink" x="0px" y="0px"
	 viewBox="0 0 512 640" style="enable-background:new 0 0 512 640;" xml:space="preserve">
<path d="M509.3,194.9c-1.6-4.8-5.7-8.4-10.7-9.4l-154.9-30.1L268.5,9.6C266.1,4.9,261.3,2,256,2c-5.3,0-10.1,2.9-12.5,7.6
	l-75.2,145.8L13.4,185.5c-5,1-9.1,4.6-10.7,9.4c-1.6,4.8-0.5,10.2,2.9,13.9l108.8,120.4L93.7,494.1c-0.7,5.2,1.6,10.3,5.9,13.3
	s9.8,3.4,14.5,1.1L256,437.2l141.9,71.3c2,1,4.2,1.5,6.3,1.5c2.9,0,5.7-0.9,8.1-2.6c4.3-3,6.5-8.1,5.9-13.3l-20.7-164.9l108.8-120.4
	C509.8,205.1,510.9,199.7,509.3,194.9z M372.2,315.2c-2.8,3-4,7.1-3.5,11.2l18.3,145l-124.6-62.6c-2-1-4.2-1.5-6.3-1.5
	s-4.3,0.5-6.3,1.5L125,471.4l8.1-64.6h41.4c7.8,0,14.1-6.3,14.1-14.1c0-7.8-6.3-14.1-14.1-14.1h-37.8l3.9-30.9h71.3
	c7.8,0,14.1-6.3,14.1-14.1c0-7.8-6.3-14.1-14.1-14.1h-69.6c-0.6-1.6-1.4-3-2.6-4.3L43.3,208.5l137-26.6c4.2-0.8,7.9-3.5,9.9-7.4
	L256,46.9l65.8,127.6c2,3.8,5.6,6.6,9.9,7.4l137,26.6L372.2,315.2z"/>
</svg>
