<svg xmlns="http://www.w3.org/2000/svg" xmlns:xlink="http://www.w3.org/1999/xlink" version="1.1" x="0px" y="0px" viewBox="0 0 512 640" enable-background="new 0 0 512 512" xml:space="preserve"><g><path d="M380.9,247.4c35.3,0,64.1-28.7,64.1-64.1s-28.7-64.1-64.1-64.1c-35.3,0-64.1,28.7-64.1,64.1S345.6,247.4,380.9,247.4z    M380.9,147.5c19.8,0,35.8,16.1,35.8,35.8s-16.1,35.8-35.8,35.8c-19.8,0-35.8-16.1-35.8-35.8S361.1,147.5,380.9,147.5z"/><path d="M447,325c0-35.3-28.7-64.1-64.1-64.1c-35.3,0-64.1,28.7-64.1,64.1S347.7,389,383,389C418.3,389,447,360.3,447,325z    M383,360.8c-19.8,0-35.8-16.1-35.8-35.8s16.1-35.8,35.8-35.8c19.8,0,35.8,16.1,35.8,35.8S402.7,360.8,383,360.8z"/><path d="M131.1,264.6c-35.3,0-64.1,28.7-64.1,64.1s28.7,64.1,64.1,64.1c35.3,0,64.1-28.7,64.1-64.1S166.4,264.6,131.1,264.6z    M131.1,364.5c-19.8,0-35.8-16.1-35.8-35.8s16.1-35.8,35.8-35.8s35.8,16.1,35.8,35.8S150.9,364.5,131.1,364.5z"/><path d="M129,251.1c35.3,0,64.1-28.7,64.1-64.1S164.3,123,129,123c-35.3,0-64.1,28.7-64.1,64.1S93.7,251.1,129,251.1z M129,151.2   c19.8,0,35.8,16.1,35.8,35.8s-16.1,35.8-35.8,35.8S93.2,206.8,93.2,187S109.2,151.2,129,151.2z"/><path d="M256,200.6c-30.5,0-55.4,24.8-55.4,55.4s24.8,55.4,55.4,55.4s55.4-24.8,55.4-55.4S286.5,200.6,256,200.6z M256,283.1   c-15,0-27.1-12.2-27.1-27.1c0-15,12.2-27.1,27.1-27.1c15,0,27.1,12.2,27.1,27.1C283.1,271,271,283.1,256,283.1z"/><path d="M495.9,481.8H372.1C453.9,439.5,510,354.2,510,256C510,115.9,396.1,2,256,2S2,115.9,2,256s113.9,254,254,254   c3.4,0,239.9,0,239.9,0c7.8,0,14.1-6.3,14.1-14.1S503.7,481.8,495.9,481.8z M30.2,256C30.2,131.5,131.5,30.2,256,30.2   S481.8,131.5,481.8,256S380.5,481.8,256,481.8S30.2,380.5,30.2,256z"/><path d="M256,175.6c35.3,0,64.1-28.7,64.1-64.1S291.3,47.4,256,47.4c-35.3,0-64.1,28.7-64.1,64.1S220.7,175.6,256,175.6z M256,75.7   c19.8,0,35.8,16.1,35.8,35.8s-16.1,35.8-35.8,35.8s-35.8-16.1-35.8-35.8S236.2,75.7,256,75.7z"/><path d="M256,336.4c-35.3,0-64.1,28.7-64.1,64.1s28.7,64.1,64.1,64.1c35.3,0,64.1-28.7,64.1-64.1S291.3,336.4,256,336.4z    M256,436.3c-19.8,0-35.8-16.1-35.8-35.8c0-19.8,16.1-35.8,35.8-35.8s35.8,16.1,35.8,35.8C291.8,420.3,275.8,436.3,256,436.3z"/></g><text x="0" y="527" fill="#000000" font-size="5px" font-weight="bold" font-family="'Helvetica Neue', Helvetica, Arial-Unicode, Arial, Sans-serif">Created by Icon Fair</text><text x="0" y="532" fill="#000000" font-size="5px" font-weight="bold" font-family="'Helvetica Neue', Helvetica, Arial-Unicode, Arial, Sans-serif">from the Noun Project</text></svg>