<svg xmlns="http://www.w3.org/2000/svg" xmlns:xlink="http://www.w3.org/1999/xlink" version="1.1" x="0px" y="0px" viewBox="0 0 512 640" enable-background="new 0 0 512 512" xml:space="preserve"><g><path d="M457.8,13.8H54.2c-22.3,0-40.4,18.1-40.4,40.4v288.3c0,22.3,18.1,40.4,40.4,40.4h138.5c-3.4,6.5-6.6,13.6-8.7,20.7   c-41.6,5.7-86.8,18-86.8,44.9c0,48.2,142.5,49.6,158.7,49.6c16.2,0,158.7-1.4,158.7-49.6c0-26.9-45.2-39.3-86.8-44.9   c-2.1-7.1-5.3-14.2-8.7-20.7h138.5c22.3,0,40.4-18.1,40.4-40.4V54.2C498.2,31.9,480.1,13.8,457.8,13.8z M325,438.2   c1.8-2.2,3-4.6,4-7.2c35,5.3,52.8,13.2,57.9,17.7c-9.5,8.9-56.8,22.6-130.8,22.6c-74,0-121.3-13.8-130.8-22.6   c5.1-4.5,22.8-12.4,57.9-17.7c0.9,2.6,2.2,5,4,7.2c16.3,19.8,56.9,21.3,69,21.3C268.1,459.5,308.7,458,325,438.2z M208.1,421.4   c0.5-11.3,7.3-24.7,15.8-38.5h64.2c8.7,14.9,16,29,15.8,38.5c-5.1,5.5-23.3,11.2-47.9,11.2S213.2,426.9,208.1,421.4z M471.2,342.5   c0,7.4-6,13.5-13.5,13.5h-13.5v-11.2c0-7.4-6-13.5-13.5-13.5c-7.4,0-13.5,6-13.5,13.5V356h-26.9v-11.2c0-7.4-6-13.5-13.5-13.5   c-7.4,0-13.5,6-13.5,13.5V356H54.2c-7.4,0-13.5-6-13.5-13.5v-68.2h430.5V342.5z M471.2,247.5H40.8v-85.9h30c7.4,0,13.5-6,13.5-13.5   s-6-13.5-13.5-13.5h-30v-26.9h56.9c7.4,0,13.5-6,13.5-13.5c0-7.4-6-13.5-13.5-13.5H40.8V54.2c0-7.4,6-13.5,13.5-13.5h403.6   c7.4,0,13.5,6,13.5,13.5V247.5z"/><path d="M266.8,301.3h-21.5c-7.4,0-13.5,6-13.5,13.5c0,7.4,6,13.5,13.5,13.5h21.5c7.4,0,13.5-6,13.5-13.5   C280.2,307.3,274.2,301.3,266.8,301.3z"/></g><text x="0" y="527" fill="#000000" font-size="5px" font-weight="bold" font-family="'Helvetica Neue', Helvetica, Arial-Unicode, Arial, Sans-serif">Created by Icon Fair</text><text x="0" y="532" fill="#000000" font-size="5px" font-weight="bold" font-family="'Helvetica Neue', Helvetica, Arial-Unicode, Arial, Sans-serif">from the Noun Project</text></svg>