<svg xmlns="http://www.w3.org/2000/svg" xmlns:xlink="http://www.w3.org/1999/xlink" version="1.1" x="0px" y="0px" viewBox="0 0 50 62.5" style="enable-background:new 0 0 50 50;" xml:space="preserve"><style type="text/css">
	.st0{fill:none;stroke:#000000;stroke-width:2;stroke-miterlimit:10;}
	.st1{fill:none;stroke:#000000;stroke-width:2;stroke-linejoin:round;stroke-miterlimit:10;}
	.st2{fill:none;stroke:#000000;stroke-width:2;stroke-miterlimit:10;stroke-dasharray:2,2;}
	.st3{fill:none;stroke:#000000;stroke-width:2;stroke-linecap:round;stroke-linejoin:round;stroke-miterlimit:10;}
	.st4{fill:none;stroke:#000000;stroke-width:2;stroke-linecap:round;stroke-miterlimit:10;}
	.st5{fill:none;stroke:#000000;stroke-width:2;stroke-linejoin:bevel;stroke-miterlimit:10;}
	.st6{fill:none;stroke:#000000;stroke-width:2;stroke-linejoin:round;stroke-miterlimit:10;stroke-dasharray:2,2;}
	.st7{fill:none;stroke:#000000;stroke-width:2;stroke-miterlimit:10;stroke-dasharray:2,3;}
</style><g><rect x="28" y="2" class="st0" width="11" height="46"/><line class="st0" x1="28" y1="41" x2="33" y2="41"/><line class="st0" x1="28" y1="33" x2="32" y2="33"/><line class="st0" x1="28" y1="25" x2="33" y2="25"/><line class="st0" x1="28" y1="17" x2="32" y2="17"/><line class="st0" x1="28" y1="9" x2="33" y2="9"/><g><path class="st0" d="M16.4,2c0.1-0.1,0.2,0,0.2,0.2c-0.3,0.9-1,3.6,1.1,6.3c0,0,2.5,3.2,0.5,5.9c-1,1.3-2.8,1.7-4.4,1.1l-0.1,0    c-1.3-0.6-2.1-1.8-2.4-3.1C10.8,9.8,10.8,5.3,16.4,2z"/><path class="st0" d="M19.1,26.5c0,8.9-1.8,21.5-4,21.5s-4-12.6-4-21.5s1.8-10.8,4-10.8S19.1,17.6,19.1,26.5z"/></g><line class="st0" x1="11.3" y1="21" x2="18.7" y2="21"/></g><text x="0" y="65" fill="#000000" font-size="5px" font-weight="bold" font-family="'Helvetica Neue', Helvetica, Arial-Unicode, Arial, Sans-serif">Created by Dinosoft Labs</text><text x="0" y="70" fill="#000000" font-size="5px" font-weight="bold" font-family="'Helvetica Neue', Helvetica, Arial-Unicode, Arial, Sans-serif">from the Noun Project</text></svg>