<svg xmlns="http://www.w3.org/2000/svg" xmlns:xlink="http://www.w3.org/1999/xlink" version="1.1" x="0px" y="0px" viewBox="0 0 512 640" enable-background="new 0 0 512 512" xml:space="preserve"><path d="M495.9,446.8H327.8v-20.9c0-7.8-6.3-14.1-14.1-14.1h-43.5V371c95.3-7.2,170.7-87.1,170.7-184.2C440.8,84.9,357.9,2,256,2  C154.1,2,71.2,84.9,71.2,186.8c0,97.1,75.4,177,170.7,184.2v40.8h-45c-7.8,0-14.1,6.3-14.1,14.1v20.9H16.1  c-7.8,0-14.1,6.3-14.1,14.1S8.3,475,16.1,475h166.6v20.9c0,7.8,6.3,14.1,14.1,14.1h116.8c7.8,0,14.1-6.3,14.1-14.1V475h168.1  c7.8,0,14.1-6.3,14.1-14.1S503.7,446.8,495.9,446.8z M318.2,330.5c6.9-10.6,13-23,18.1-36.8c7.9,3.3,15.4,7,22.4,11.2  C346.6,315.4,333,324,318.2,330.5z M378.5,284.2c-10.5-6.9-21.8-12.9-33.9-17.8c4.9-20,8-42.1,8.9-65.4h58.4  C409.1,232.2,397,260.9,378.5,284.2z M411.9,172.7h-58.4c-0.9-24.2-4.2-47-9.5-67.5c11.8-4.7,22.9-10.6,33.3-17.2  C396.6,111.5,409,140.7,411.9,172.7z M357,67.3c-6.8,4-14,7.5-21.6,10.6c-4.9-13-10.7-24.7-17.3-34.8  C332.3,49.3,345.4,57.5,357,67.3z M270.1,34.1c14.3,7.5,28.2,26,38.5,52.6c-12.4,3.1-25.3,5.2-38.5,6.1V34.1z M270.1,121  c16.2-0.9,31.9-3.3,47-7.2c4.4,17.6,7.3,37.3,8.2,58.9h-55.1V121z M270.1,200.9h55.1c-0.9,20.7-3.6,39.7-7.7,56.7  c-15.2-3.9-31.1-6.4-47.5-7.3V200.9z M270.1,278.6c13.5,0.9,26.6,3,39.3,6.2c-10.4,27.7-24.6,47-39.3,54.7V278.6z M241.9,34.1v58.6  c-13.2-0.8-26.1-2.9-38.5-6C213.7,60.1,227.6,41.7,241.9,34.1z M241.9,121v51.7h-55.1c0.9-21.6,3.8-41.3,8.2-58.9  C210,117.7,225.7,120.1,241.9,121z M193.9,43.1C187.3,53.2,181.5,65,176.5,78c-7.6-3.1-14.8-6.7-21.6-10.7  C166.6,57.5,179.7,49.3,193.9,43.1z M134.7,88c10.3,6.7,21.4,12.5,33.3,17.2c-5.2,20.5-8.5,43.3-9.4,67.5h-58.4  C102.9,140.7,115.4,111.5,134.7,88z M100.1,200.9h58.4c0.9,23.4,4,45.4,8.9,65.4c-12.1,4.9-23.4,10.9-33.9,17.8  C114.9,260.9,102.9,232.2,100.1,200.9z M153.3,304.9c7-4.2,14.5-7.9,22.4-11.2c5.1,13.8,11.2,26.2,18.1,36.8  C179,324,165.4,315.4,153.3,304.9z M186.8,200.9h55.1v49.4c-16.4,0.9-32.3,3.4-47.5,7.3C190.4,240.6,187.6,221.6,186.8,200.9z   M202.6,284.8c12.6-3.2,25.8-5.4,39.3-6.2v60.9C227.2,331.7,213,312.5,202.6,284.8z M299.5,481.8H211V440h88.6V481.8z"/><text x="0" y="527" fill="#000000" font-size="5px" font-weight="bold" font-family="'Helvetica Neue', Helvetica, Arial-Unicode, Arial, Sans-serif">Created by Icon Fair</text><text x="0" y="532" fill="#000000" font-size="5px" font-weight="bold" font-family="'Helvetica Neue', Helvetica, Arial-Unicode, Arial, Sans-serif">from the Noun Project</text></svg>