<svg xmlns="http://www.w3.org/2000/svg" xmlns:xlink="http://www.w3.org/1999/xlink" version="1.1" x="0px" y="0px" viewBox="0 0 512 640" enable-background="new 0 0 512 512" xml:space="preserve"><path d="M457.5,317.5c-15-4.2-30.1-6.3-44.9-6.3c-48.7,0-90.2,22.3-116.2,58.8v-68.7c45.4-16.6,77.9-60.1,77.9-111.2V58.9  c-1-12.6-11.9-18.2-22.5-11.3l-35.6,26.5l-49-66c-6.7-8.8-18-7.5-22.6,0l-49.1,66l-35.6-26.5c-10-6.7-21.9-0.6-22.5,11.3v131.1  c0,51.1,32.5,94.5,77.9,111.2v68.1c-26.1-36.1-67.4-58.1-115.8-58.1c-14.8,0-29.9,2.1-44.9,6.3c-6.6,1.8-10.9,8.1-10.3,14.9  c7.7,80.3,67,136.4,144.3,136.4c8.8,0,17.7-0.8,26.6-2.3v29.4c0,7.8,6.3,14.1,14.1,14.1h53c7.8,0,14.1-6.3,14.1-14.1v-29.5  c9.1,1.5,18.1,2.4,27.1,2.4c77.3,0,136.7-56.1,144.3-136.4C468.4,325.6,464.1,319.3,457.5,317.5z M188.6,440.6  c-58.3,0-103.9-40-114.6-98.8c8.6-1.6,17.1-2.5,25.4-2.5c58.3,0,103.9,40,114.6,98.8C205.5,439.8,196.9,440.6,188.6,440.6z   M255.8,40.2l37.7,50.8L255.8,119L218,90.9L255.8,40.2z M268.2,481.8h-24.8V307.9c4.1,0.4,8.2,0.7,12.4,0.7c4.2,0,8.3-0.2,12.4-0.7  V481.8z M255.8,280.3c-29.7,0-56.1-14.5-72.5-36.8h17.8c7.8,0,14.1-6.3,14.1-14.1c0-7.8-6.3-14.1-14.1-14.1h-31.9  c-2.4-8-3.7-16.5-3.7-25.3v-4.3h63.8c7.8,0,14.1-6.3,14.1-14.1c0-7.8-6.3-14.1-14.1-14.1h-63.8V87l81.8,60.9c5,3.7,11.8,3.7,16.8,0  L346.1,87v103.1C346.1,239.8,305.6,280.3,255.8,280.3z M323.4,440.6c-8.4,0-16.9-0.8-25.4-2.5c10.7-58.7,56.3-98.8,114.6-98.8  c8.4,0,16.9,0.8,25.4,2.5C427.4,400.6,381.7,440.6,323.4,440.6z"/><text x="0" y="527" fill="#000000" font-size="5px" font-weight="bold" font-family="'Helvetica Neue', Helvetica, Arial-Unicode, Arial, Sans-serif">Created by Icon Fair</text><text x="0" y="532" fill="#000000" font-size="5px" font-weight="bold" font-family="'Helvetica Neue', Helvetica, Arial-Unicode, Arial, Sans-serif">from the Noun Project</text></svg>