<?xml version="1.0" encoding="utf-8"?>
<!-- Generator: Adobe Illustrator 21.0.0, SVG Export Plug-In . SVG Version: 6.00 Build 0)  -->
<svg version="1.1" id="Layer_1" xmlns="http://www.w3.org/2000/svg" xmlns:xlink="http://www.w3.org/1999/xlink" x="0px" y="0px"
	 viewBox="0 0 512 640" style="enable-background:new 0 0 512 640;" xml:space="preserve">
<style type="text/css">
	.st0{display:none;}
	.st1{display:none;fill:none;stroke:#00899B;stroke-width:5;stroke-miterlimit:10;}
</style>
<g>
	<path d="M498.2,256c0-133.5-108.6-242.2-242.2-242.2S13.8,122.5,13.8,256 M470.8,242.5h-87.7c-0.9-33.4-5.2-64.8-12.3-92.9
		c20.4-6.9,38.9-15.7,54.6-26.1C451.5,156.7,468,197.8,470.8,242.5z M407.4,103.1c-12.8,8.1-27.7,15.1-44.1,20.7
		c-9.7-28.7-22.5-53-37.6-71.5C356.7,63,384.5,80.5,407.4,103.1z M269.5,42.8c27.6,8.3,52,41.7,67.9,88.6
		c-21.2,5.1-44.2,8.2-67.9,9.1V42.8z M269.5,167.5c26.2-0.9,51.7-4.4,75.4-10.2c6.5,26,10.5,54.9,11.4,85.3h-86.8V167.5z
		 M242.5,42.8v97.7c-23.7-0.9-46.6-4-67.9-9.1C190.6,84.5,215,51.1,242.5,42.8z M155.7,242.5c0.9-30.4,5-59.3,11.4-85.3
		c23.7,5.8,49.2,9.3,75.4,10.2v75.1H155.7z M186.3,52.4c-15.1,18.4-27.9,42.8-37.6,71.5c-16.4-5.7-31.3-12.6-44.1-20.7
		C127.5,80.5,155.3,63,186.3,52.4z M86.6,123.5c15.6,10.4,34.1,19.2,54.6,26.1c-7.1,28.2-11.4,59.6-12.3,92.9H41.2
		C44,197.8,60.5,156.7,86.6,123.5z"/>
	<path d="M13.8,256c0,133.5,108.6,242.2,242.2,242.2S498.2,389.5,498.2,256 M41.2,269.5h87.7c0.9,33.4,5.2,64.8,12.3,92.9
		c-20.4,6.9-38.9,15.7-54.6,26.1C60.5,355.3,44,314.2,41.2,269.5z M104.6,408.9c12.8-8.1,27.7-15.1,44.1-20.7
		c9.7,28.7,22.5,53,37.6,71.5C155.3,449,127.5,431.5,104.6,408.9z M242.5,469.2c-27.6-8.3-52-41.7-67.9-88.6
		c21.2-5.1,44.2-8.2,67.9-9.1V469.2z M242.5,344.5c-26.2,0.9-51.7,4.4-75.4,10.2c-6.5-26-10.5-54.9-11.4-85.3h86.8V344.5z
		 M269.5,469.2v-97.7c23.7,0.9,46.6,4,67.9,9.1C321.4,427.5,297,460.9,269.5,469.2z M356.3,269.5c-0.9,30.4-5,59.3-11.4,85.3
		c-23.7-5.8-49.2-9.3-75.4-10.2v-75.1H356.3z M325.7,459.6c15.1-18.4,27.9-42.8,37.6-71.5c16.4,5.7,31.3,12.6,44.1,20.7
		C384.5,431.5,356.7,449,325.7,459.6z M425.4,388.5c-15.6-10.4-34.1-19.2-54.6-26.1c7.1-28.2,11.4-59.6,12.3-92.9h87.7
		C468,314.2,451.5,355.3,425.4,388.5z"/>
	<polygon class="st0" points="152.4,417.5 137.3,371 116.6,371 101.6,417.5 86.6,371 64.4,371 90.6,448 112.7,448 127,406.1 
		141.2,448 163.5,448 189.7,371 167.4,371 	"/>
	<polygon class="st0" points="281.3,417.5 266.3,371 245.6,371 230.5,417.5 215.5,371 193.4,371 219.5,448 241.7,448 256,406.1 
		270.1,448 292.5,448 318.6,371 296.3,371 	"/>
	<polygon class="st0" points="410.3,417.5 395.2,371 374.5,371 359.5,417.5 344.5,371 322.3,371 348.5,448 370.7,448 384.9,406.1 
		399.1,448 421.4,448 447.6,371 425.3,371 	"/>
</g>
<circle class="st1" cx="256.4" cy="256" r="242.7"/>
</svg>
