<?xml version="1.0" encoding="utf-8"?>
<!-- Generator: Adobe Illustrator 21.0.0, SVG Export Plug-In . SVG Version: 6.00 Build 0)  -->
<svg version="1.1" id="Layer_1" xmlns="http://www.w3.org/2000/svg" xmlns:xlink="http://www.w3.org/1999/xlink" viewBox="0 0 512 640" enable-background="new 0 0 512 512" xml:space="preserve">
<style type="text/css">
	<![CDATA[
	path {
		stroke: none;
		fill: white;
		stroke-linecap:round;
		stroke-linejoin:round;
		stroke-width: 10;
		/*stroke-dasharray: 50 10;*/
		animation: draw 5s infinite linear;


	}
    
	.firstp {

	stroke-dasharray: 800;
    stroke-dashoffset: 800;

	}
    .secondp {
	stroke-dasharray: 600;
    stroke-dashoffset: 600;

	}
	@keyframes draw {
  to {
    stroke-dashoffset: 0;
  }
}
    ]]>
	
</style>
<g>
	<path class="st0" d="M101.9,207.7c0,10.3-1.8,19.2-5.3,26.7c-3.5,7.5-8.4,13.3-14.7,17.2c-6.3,4-13.5,6-21.6,6
		c-2.3,0-5-0.2-8.3-0.7c-3.3-0.4-7.7-1.6-13.1-3.6c-4-1.4-8.1-3.4-12.3-5.8c-2.9-1.7-4.7-4.8-4.7-8.2V224c0-7.5,8.4-12.1,14.7-8
		c0.5,0.4,1.1,0.7,1.6,1.1c5.3,3.4,11.1,5.1,17.2,5.1c5.6,0,9.3-1.4,10.9-4.2c1.7-2.8,2.5-5.4,2.5-7.9c0-4.4-1.4-8.2-4.3-11.2
		c-2.8-3-7-6.2-12.4-9.4c-6-3.8-11.3-7.9-15.8-12.4c-4.5-4.5-8.2-10.1-11.1-16.8c-2.9-6.7-4.3-14.7-4.3-23.8c0-8.8,1.4-16.8,4.3-24
		c2.9-7.1,7.3-12.9,13.3-17.1c6-4.3,13.2-6.4,21.8-6.4c6.1,0,11.8,0.9,16.9,2.7c5.2,1.8,9.5,3.8,12.8,6c1.1,0.7,2.1,1.4,3,2
		c2.5,1.8,4,4.6,4,7.7c0,3.4,0,8.3,0,13.2c0,7.7-8.6,12.2-15,7.9l0,0c-5.5-3.8-11.4-5.7-17.7-5.7c-4.1,0-7.1,1.2-8.9,3.6
		c-1.8,2.4-2.8,5.3-2.8,8.8c0,3.2,0.9,6,2.8,8.4c1.8,2.4,5.1,5.3,9.9,8.6c8.4,5.9,15.2,11.3,20.2,16c5.1,4.7,9,10.2,11.9,16.4
		C100.5,190.8,101.9,198.5,101.9,207.7z"/>
	<path class="st0" d="M230.6,255.5h-14.2c-5.2,0-9.4-4.2-9.4-9.4v-45.3c0-5.2-4.2-9.4-9.4-9.4h-30.9c-5.2,0-9.4,4.2-9.4,9.4v45.3
		c0,5.2-4.2,9.4-9.4,9.4h-14.3c-5.2,0-9.4-4.2-9.4-9.4V100.6c0-5.2,4.2-9.4,9.4-9.4H148c5.2,0,9.4,4.2,9.4,9.4v41.5
		c0,5.2,4.2,9.4,9.4,9.4h30.9c5.2,0,9.4-4.2,9.4-9.4v-41.5c0-5.2,4.2-9.4,9.4-9.4h14.2c5.2,0,9.4,4.2,9.4,9.4v145.5
		C240,251.3,235.8,255.5,230.6,255.5z"/>
	<path class="st0" d="M340.6,255.5h-63.8c-5.2,0-9.4-4.2-9.4-9.4V100.6c0-5.2,4.2-9.4,9.4-9.4h62.4c5.2,0,9.4,4.2,9.4,9.4v14.2
		c0,5.2-4.2,9.4-9.4,9.4h-29.4c-5.2,0-9.4,4.2-9.4,9.4v11.3c0,5.2,4.2,9.4,9.4,9.4h27.2c5.2,0,9.4,4.2,9.4,9.4V178
		c0,5.2-4.2,9.4-9.4,9.4h-27.2c-5.2,0-9.4,4.2-9.4,9.4V213c0,5.2,4.2,9.4,9.4,9.4h30.8c5.2,0,9.4,4.2,9.4,9.4v14.3
		C350,251.3,345.8,255.5,340.6,255.5z"/>
	<path class="st0" d="M481.6,255.5h-14.8c-3.2,0-6.3-1.7-8-4.4l-36.7-59.1c-5-8-17.3-4.5-17.3,4.9v49.2c0,5.2-4.2,9.4-9.4,9.4h-13.9
		c-5.2,0-9.4-4.2-9.4-9.4V100.6c0-5.2,4.2-9.4,9.4-9.4h14.7c3.2,0,6.3,1.7,8,4.4l36.5,58.7c5,8,17.3,4.5,17.3-5v-48.8
		c0-5.2,4.2-9.4,9.4-9.4h14.2c5.2,0,9.4,4.2,9.4,9.4v145.5C491,251.3,486.8,255.5,481.6,255.5z"/>
</g>
<g>
	<path class="st0" d="M74,421.5H25c-2.4,0-4.3-1.9-4.3-4.3V311.9c0-2.4,1.9-4.3,4.3-4.3h14.3c2.4,0,4.3,1.9,4.3,4.3v78
		c0,2.4,1.9,4.3,4.3,4.3H74c2.4,0,4.3,1.9,4.3,4.3v18.6C78.4,419.6,76.4,421.5,74,421.5z"/>
	<path class="st0" d="M110.4,421.5H96.1c-2.4,0-4.3-1.9-4.3-4.3V311.9c0-2.4,1.9-4.3,4.3-4.3h14.3c2.4,0,4.3,1.9,4.3,4.3v105.3
		C114.7,419.6,112.8,421.5,110.4,421.5z"/>
	<path class="st0" d="M201.9,410.8c0,1.4-0.7,2.7-1.8,3.5c-2.6,1.8-5.2,3.4-7.8,4.6c-3.3,1.5-6.6,2.5-9.9,3.2
		c-3.3,0.6-6.8,0.9-10.4,0.9c-6.6,0-12.5-1.4-17.8-4.1c-5.2-2.7-9.8-6.8-13.6-12.1c-3.9-5.3-6.7-11.6-8.7-18.7
		c-1.9-7.2-2.9-15-2.9-23.6c0-9.8,1.1-18.4,3.4-25.8c2.3-7.4,5.4-13.5,9.5-18.4c4.1-4.9,8.7-8.5,13.9-10.8
		c5.2-2.3,10.7-3.5,16.5-3.5c8,0,16.9,2.5,26.9,7.4c1.5,0.7,2.4,2.2,2.4,3.9v18.3c0,3.6-4.1,5.6-6.9,3.5c-1.4-1.1-2.8-2-4.2-2.9
		c-3.7-2.3-8-3.5-13-3.5c-4.4,0-8.5,1.3-12.4,3.9s-6.9,6.4-9.3,11.3c-2.3,4.9-3.5,10.6-3.5,17.1c0,5.8,1,11,3.1,15.8
		c2,4.8,4.9,8.6,8.5,11.4c3.6,2.8,7.7,4.2,12.3,4.2c3.7,0,7.2-0.7,10.5-2c3.3-1.3,6.1-2.8,8.3-4.5h0c2.9-2.1,6.9-0.1,6.9,3.5V410.8z
		"/>
	<path class="st0" d="M293.2,421.5H279c-2.4,0-4.3-1.9-4.3-4.3v-35.8c0-2.4-1.9-4.3-4.3-4.3h-25.8c-2.4,0-4.3,1.9-4.3,4.3v35.8
		c0,2.4-1.9,4.3-4.3,4.3h-14.3c-2.4,0-4.3-1.9-4.3-4.3V311.9c0-2.4,1.9-4.3,4.3-4.3h14.3c2.4,0,4.3,1.9,4.3,4.3v33.2
		c0,2.4,1.9,4.3,4.3,4.3h25.8c2.4,0,4.3-1.9,4.3-4.3v-33.2c0-2.4,1.9-4.3,4.3-4.3h14.2c2.4,0,4.3,1.9,4.3,4.3v105.3
		C297.5,419.6,295.6,421.5,293.2,421.5z"/>
	<path class="st0" d="M394.2,421.5h-14.4c-2,0-3.7-1.3-4.2-3.2l-4.5-16.7c-0.5-1.9-2.2-3.2-4.2-3.2h-26.4c-2,0-3.7,1.3-4.2,3.2
		l-4.6,16.7c-0.5,1.9-2.2,3.2-4.2,3.2h-14.4c-2.9,0-5-2.8-4.1-5.5l31-105.3c0.5-1.8,2.2-3.1,4.1-3.1h18.8c1.9,0,3.6,1.3,4.2,3.1
		L398.4,416C399.2,418.7,397.1,421.5,394.2,421.5z M363.6,373.2l-5.5-20.6c-1.1-4.3-7.2-4.3-8.4,0l-5.6,20.6
		c-0.7,2.7,1.3,5.5,4.2,5.5h11.1C362.3,378.6,364.4,375.9,363.6,373.2z"/>
	<path class="st0" d="M491.4,364.5c0,10.6-1.6,20.4-4.9,29.3c-3.3,8.9-8.1,16-14.6,21.3c-6.5,5.3-14.3,7.9-23.6,7.9
		c-9.4,0-17.3-2.7-23.8-8.2c-6.5-5.5-11.3-12.7-14.5-21.6c-3.2-8.9-4.7-18.5-4.7-28.7c0-10.2,1.6-19.8,4.7-28.7
		c3.1-8.9,8-16.1,14.5-21.5c6.5-5.5,14.5-8.2,23.9-8.2c7,0,13.3,1.6,18.8,4.7c5.5,3.1,10,7.4,13.6,12.7c3.5,5.3,6.2,11.6,8.1,18.7
		C490.4,349.2,491.4,356.6,491.4,364.5z M468,364.5c0-4.3-0.4-8.2-1.3-11.7c-0.8-3.5-2.1-6.6-3.8-9.2c-1.7-2.6-3.8-4.6-6.2-6.1
		c-2.4-1.5-5.3-2.2-8.5-2.2c-6.1,0-11,2.7-14.5,8.1c-3.5,5.4-5.3,12.4-5.3,21.1c0,8.7,1.8,15.8,5.3,21.2c3.5,5.4,8.3,8.1,14.4,8.1
		c4.2,0,7.8-1.2,10.7-3.7c3-2.5,5.2-5.9,6.7-10.4C467.2,375.2,468,370.2,468,364.5z"/>
</g>
</svg>
