<svg xmlns="http://www.w3.org/2000/svg" xmlns:xlink="http://www.w3.org/1999/xlink" version="1.1" x="0px" y="0px" viewBox="0 0 512 640" enable-background="new 0 0 512 512" xml:space="preserve"><g><path d="M257.5,510c-140.1,0-254-113.9-254-254S117.5,2,257.5,2C306,2,331,9.9,341.1,28.3c13.2,23.9-5.4,53.4-29,90.9   c-24.3,38.6-54.6,86.7-54.6,136.9c0,50.2,30.1,98.3,54.3,136.9c23.4,37.5,42,67.1,28.8,90.9C330.4,502.2,305.6,510,257.5,510z    M257.5,30.2C133,30.2,31.8,131.5,31.8,256S133,481.8,257.5,481.8c48.2,0,56.9-8.9,58.4-11.6c5.1-9.3-12.5-37.4-28-62.2   c-26.1-41.7-58.6-93.6-58.6-151.9c0-58.3,32.7-110.2,58.9-151.9c15.6-24.8,33.3-52.9,28.2-62.2C314.9,39.2,306.2,30.2,257.5,30.2z"/><path d="M202,154.5c-27.2,0-49.4-22.2-49.4-49.4s22.2-49.4,49.4-49.4s49.4,22.2,49.4,49.4S229.2,154.5,202,154.5z M202,83.9   c-11.7,0-21.2,9.5-21.2,21.2s9.5,21.2,21.2,21.2c11.7,0,21.2-9.5,21.2-21.2S213.6,83.9,202,83.9z"/><path d="M119.2,247.5c-27.2,0-49.4-22.2-49.4-49.4s22.2-49.4,49.4-49.4s49.4,22.2,49.4,49.4S146.4,247.5,119.2,247.5z M119.2,177   c-11.7,0-21.2,9.5-21.2,21.2s9.5,21.2,21.2,21.2s21.2-9.5,21.2-21.2S130.8,177,119.2,177z"/><path d="M127.5,366.8c-27.2,0-49.4-22.2-49.4-49.4c0-27.2,22.2-49.4,49.4-49.4s49.4,22.2,49.4,49.4   C176.9,344.7,154.7,366.8,127.5,366.8z M127.5,296.3c-11.7,0-21.2,9.5-21.2,21.2c0,11.7,9.5,21.2,21.2,21.2s21.2-9.5,21.2-21.2   C148.6,305.8,139.1,296.3,127.5,296.3z"/><path d="M209.8,456.4c-27.2,0-49.4-22.2-49.4-49.4c0-27.2,22.2-49.4,49.4-49.4s49.4,22.2,49.4,49.4   C259.2,434.2,237,456.4,209.8,456.4z M209.8,385.8c-11.7,0-21.2,9.5-21.2,21.2c0,11.7,9.5,21.2,21.2,21.2s21.2-9.5,21.2-21.2   C230.9,395.3,221.4,385.8,209.8,385.8z"/><path d="M482.2,126.3l25.6-106.9c2.9-7.3-4-17.4-13.7-17.4H388c-9.9,0-15.3,7.5-13.7,17.4l25.6,106.9l-12.6,33.6   c-0.6,1.6-0.9,3.3-0.9,5c0,22.2,1.1,32.8,3.1,52l28,270.6c1.2,12.8,11.3,22.5,23.5,22.5c12.3,0,22.4-9.7,23.5-22.3l28-270.8   c2-19.2,3.1-29.8,3.1-52c0-1.7-0.3-3.4-0.9-5L482.2,126.3z M464.5,214L441,440.7L417.6,214c-1.9-18.6-2.9-27.6-3-46.6l9.8-26.1   h33.3l9.8,26.1C467.4,186.4,466.5,195.3,464.5,214z M456.3,113.1h-30.6l-19.9-82.9h70.3L456.3,113.1z"/></g><text x="0" y="527" fill="#000000" font-size="5px" font-weight="bold" font-family="'Helvetica Neue', Helvetica, Arial-Unicode, Arial, Sans-serif">Created by Icon Fair</text><text x="0" y="532" fill="#000000" font-size="5px" font-weight="bold" font-family="'Helvetica Neue', Helvetica, Arial-Unicode, Arial, Sans-serif">from the Noun Project</text></svg>