<?xml version="1.0" encoding="utf-8"?>
<!-- Generator: Adobe Illustrator 21.0.0, SVG Export Plug-In . SVG Version: 6.00 Build 0)  -->
<svg version="1.1" id="Layer_1" xmlns="http://www.w3.org/2000/svg" xmlns:xlink="http://www.w3.org/1999/xlink" x="0px" y="0px"
	 viewBox="0 0 512 640" style="enable-background:new 0 0 512 640;" xml:space="preserve">
<g>
	<path d="M328.7,147.7c0-7.8-6.3-14.1-14.1-14.1H197.4c-7.8,0-14.1,6.3-14.1,14.1s6.3,14.1,14.1,14.1h117.2
		C322.4,161.8,328.7,155.5,328.7,147.7z"/>
	<path d="M467.7,74.5H44.3C21,74.5,2,93.5,2,116.8v278.4c0,23.3,19,42.3,42.3,42.3h423.3c23.3,0,42.3-19,42.3-42.3V116.8
		C510,93.5,491,74.5,467.7,74.5z M459.1,102.7L279.8,265.9c-13.6,12.4-34,12.4-47.6,0L52.9,102.7H459.1z M30.2,389.4v-81.2H57
		c7.8,0,14.1-6.3,14.1-14.1c0-7.8-6.3-14.1-14.1-14.1H30.2v-31.8h53.6c7.8,0,14.1-6.3,14.1-14.1S91.6,220,83.8,220H30.2v-99.8
		l153,139.3L30.2,389.4z M50.4,409.3l153.9-130.6l8.9,8.1c25.4,22.8,62.8,21.3,85.6,0l8.9-8.1l153.9,130.7L50.4,409.3L50.4,409.3z
		 M481.8,389.4l-153-129.9l153-139.3V389.4z"/>
</g>
</svg>
