<svg xmlns="http://www.w3.org/2000/svg" xmlns:xlink="http://www.w3.org/1999/xlink" version="1.1" x="0px" y="0px" viewBox="0 0 512 640" enable-background="new 0 0 512 512" xml:space="preserve"><g><path d="M391.6,92.5c6.1,4.9,15,3.9,19.8-2.1l22.7-28.2c4.9-6.1,3.9-15-2.1-19.8c-6.1-4.9-15-3.9-19.8,2.1l-22.7,28.2   C384.5,78.7,385.5,87.6,391.6,92.5z"/><path d="M235.6,90.4c4.9,6.1,13.8,7,19.8,2.1c6.1-4.9,7-13.8,2.1-19.8l-22.7-28.2c-4.9-6.1-13.8-7-19.8-2.1   c-6.1,4.9-7,13.8-2.1,19.8L235.6,90.4z"/><path d="M467.7,179h-49.8c-5.9,0-11.3-3.7-13.3-9.3l-8.2-22.6c-6.1-16.7-22-27.9-39.8-27.9h-74c-17.8,0-33.8,11.2-39.8,27.9   l-8.2,22.6c-2,5.6-7.4,9.3-13.3,9.3h-63.3v-17.4c0-15.6-12.7-28.2-28.2-28.2h-41c-15.6,0-28.2,12.7-28.2,28.2V179H44.3   C21,179,2,198,2,221.3v227.2c0,23.3,19,42.3,42.3,42.3h423.3c23.3,0,42.3-19,42.3-42.3V221.3C510,198,491,179,467.7,179z    M88.9,161.6h41V179h-41V161.6z M101.3,462.6h-57c-7.8,0-14.1-6.3-14.1-14.1V221.3c0-7.8,6.3-14.1,14.1-14.1h57V462.6z    M481.8,448.5c0,7.8-6.3,14.1-14.1,14.1H129.5V319.1h22.1c7.8,0,14.1-6.3,14.1-14.1c0-7.8-6.3-14.1-14.1-14.1h-22.1v-30.3h56.1   c7.8,0,14.1-6.3,14.1-14.1c0-7.8-6.3-14.1-14.1-14.1h-56.1v-25.1h91.8c17.7,0,33.7-11.2,39.8-27.9l8.2-22.6c2-5.6,7.4-9.3,13.3-9.3   h74c5.9,0,11.3,3.7,13.3,9.3l8.2,22.6c6,16.7,22,27.9,39.8,27.9h49.8c7.8,0,14.1,6.3,14.1,14.1V448.5z"/><path d="M322.3,221.4c-62.1,0-112.6,50.5-112.6,112.6s50.5,112.6,112.6,112.6S434.9,396.1,434.9,334S384.4,221.4,322.3,221.4z    M322.3,418.3c-46.5,0-84.3-37.8-84.3-84.3s37.8-84.3,84.3-84.3s84.3,37.8,84.3,84.3S368.8,418.3,322.3,418.3z"/><path d="M322.3,277.9c-31,0-56.1,25.2-56.1,56.1s25.2,56.1,56.1,56.1s56.1-25.2,56.1-56.1S353.3,277.9,322.3,277.9z M322.3,361.9   c-15.4,0-27.9-12.5-27.9-27.9c0-15.4,12.5-27.9,27.9-27.9s27.9,12.5,27.9,27.9C350.2,349.4,337.7,361.9,322.3,361.9z"/><path d="M442.6,229.9h-10.8c-7.8,0-14.1,6.3-14.1,14.1c0,7.8,6.3,14.1,14.1,14.1h10.8c7.8,0,14.1-6.3,14.1-14.1   C456.7,236.2,450.4,229.9,442.6,229.9z"/><path d="M323.5,85.6c7.8,0,14.1-6.3,14.1-14.1V35.3c0-7.8-6.3-14.1-14.1-14.1c-7.8,0-14.1,6.3-14.1,14.1v36.2   C309.4,79.2,315.7,85.6,323.5,85.6z"/></g><text x="0" y="527" fill="#000000" font-size="5px" font-weight="bold" font-family="'Helvetica Neue', Helvetica, Arial-Unicode, Arial, Sans-serif">Created by Icon Fair</text><text x="0" y="532" fill="#000000" font-size="5px" font-weight="bold" font-family="'Helvetica Neue', Helvetica, Arial-Unicode, Arial, Sans-serif">from the Noun Project</text></svg>