<?xml version="1.0" encoding="utf-8"?>
<!-- Generator: Adobe Illustrator 21.0.0, SVG Export Plug-In . SVG Version: 6.00 Build 0)  -->
<svg version="1.1" id="Layer_1" xmlns="http://www.w3.org/2000/svg" xmlns:xlink="http://www.w3.org/1999/xlink" x="0px" y="0px"
	 viewBox="0 0 512 640" style="enable-background:new 0 0 512 640;" xml:space="preserve">
<g>
	<path d="M316.2,118.1c30-8.3,49.2-10,66.2-5.7c7.6,1.9,15.2-2.6,17.1-10.2S396.9,87,389.3,85c-21.9-5.6-45.3-3.9-80.6,5.8
		c-7.5,2.1-11.9,9.8-9.9,17.3C300.6,115.6,308.3,120,316.2,118.1z"/>
	<path d="M316.2,179.4c30-8.3,49.2-10,66.2-5.7c7.6,1.9,15.2-2.6,17.1-10.2c1.9-7.6-2.6-15.2-10.2-17.2c-21.9-5.6-45.3-3.9-80.6,5.8
		c-7.5,2.1-11.9,9.8-9.9,17.3C300.6,177,308.3,181.4,316.2,179.4z"/>
	<path d="M316.2,240.8c30-8.3,49.2-10,66.2-5.7c7.6,1.9,15.2-2.6,17.1-10.2c1.9-7.6-2.6-15.2-10.2-17.2c-21.9-5.6-45.3-3.9-80.6,5.8
		c-7.5,2.1-11.9,9.8-9.9,17.3C300.6,238.3,308.3,242.7,316.2,240.8z"/>
	<path d="M399.5,286.3c1.9-7.6-2.6-15.2-10.2-17.2c-21.9-5.6-45.3-3.9-80.6,5.8c-7.5,2.1-11.9,9.8-9.9,17.3
		c1.8,7.4,9.5,11.8,17.3,9.9c30-8.3,49.2-10,66.2-5.7C389.9,298.4,397.6,293.8,399.5,286.3z"/>
	<path d="M502.3,100.1c-14.7-7.5-30.1-13.3-45.9-17.4v-34c0-4.8-2.4-9.3-6.5-11.9c-26.5-17.1-54.7-25.4-86.4-25.4
		c-36.6,0-72.6,11.2-107.6,22.5c-34.9-11.3-71-22.5-107.5-22.5c-31.7,0-59.9,8.3-86.4,25.4c-4,2.6-6.5,7.1-6.5,11.9v33.9
		C39.7,86.7,24.3,92.5,9.6,100C5,102.5,2,107.3,2,112.6v340.7c0.6,11.5,11.8,17,20.5,12.6c56.3-28.8,112.2-25.9,178-11.5
		c6.3,26.7,29,46.3,55.5,46.3s49.2-19.6,55.5-46.3c65.7-14.4,121.7-17.2,177.9,11.5c9.6,4.8,20.5-1.9,20.5-12.6V112.6
		C510,107.3,507,102.5,502.3,100.1z M270.1,59c32.2-10.3,62.9-19.3,93.4-19.3c23.5,0,44.7,5.6,64.6,17v302.6
		c-20.1-9.1-41.5-13.5-64.6-13.5c-31.7,0-62.9,8.4-93.4,17.9V59z M83.8,229.5h26.8c7.8,0,14.1-6.3,14.1-14.1s-6.3-14.1-14.1-14.1
		H83.8v-29.1h55.1c7.8,0,14.1-6.3,14.1-14.1s-6.3-14.1-14.1-14.1H83.8V56.6c19.9-11.4,41.1-17,64.6-17c30.6,0,61.2,9,93.4,19.3
		v304.7c-30.5-9.6-61.8-17.9-93.4-17.9c-23.2,0-44.5,4.4-64.6,13.5C83.8,359.2,83.8,229.5,83.8,229.5z M481.8,431.5
		c-63.6-24.9-126.7-16.2-185.9-2.6c-6.1,1.4-10.5,6.6-10.9,12.8c-1.1,17.2-13.8,30.6-29,30.6s-27.9-13.4-29-30.6
		c-0.4-6.2-4.8-11.4-10.9-12.8c-59.2-13.7-122.4-22.4-185.9,2.6v-310c8.3-3.8,16.7-6.9,25.4-9.5v271c0.6,12.9,13.8,16.8,21.8,11.9
		c21.8-14.1,45-20.9,71.1-20.9c33.6,0,67.4,10.9,103.2,22.5c2.9,0.9,5.8,0.9,8.6,0c0,0,0,0,0.1,0C296.2,384.9,330,374,363.6,374
		c26.1,0,49.3,6.8,71.1,20.9c10.3,6.6,21.8-2,21.8-11.9V111.9c8.6,2.6,17.1,5.7,25.4,9.5L481.8,431.5L481.8,431.5z"/>
</g>
</svg>
