<?xml version="1.0" encoding="utf-8"?>
<!-- Generator: Adobe Illustrator 21.0.0, SVG Export Plug-In . SVG Version: 6.00 Build 0)  -->
<svg version="1.1" id="Layer_1" xmlns="http://www.w3.org/2000/svg" xmlns:xlink="http://www.w3.org/1999/xlink" x="0px" y="0px"
	 viewBox="0 0 512 640" style="enable-background:new 0 0 512 640;" xml:space="preserve">
<g>
	<path d="M209.5,151c0,25.6,20.9,46.5,46.5,46.5s46.5-20.9,46.5-46.5s-20.9-46.5-46.5-46.5S209.5,125.4,209.5,151z M274.3,151
		c0,10.1-8.2,18.3-18.3,18.3s-18.3-8.2-18.3-18.3s8.2-18.3,18.3-18.3C266.1,132.7,274.3,140.9,274.3,151z"/>
	<path d="M256,260.4c-7.8,0-14.1,6.3-14.1,14.1V355c0,7.8,6.3,14.1,14.1,14.1c7.8,0,14.1-6.3,14.1-14.1v-80.5
		C270.1,266.7,263.8,260.4,256,260.4z"/>
	<path d="M351.2,300.2V162.5C351.2,121.3,313.8,2,256,2s-95.2,119.3-95.2,160.5v137.7c-93.6,54.4-84.8,142.2-84.4,146
		c0.8,7.1,6.8,12.5,14,12.5h84.5c7.8,0,14.1-6.3,14.1-14.1v-18.5h5.3l49.8,77.4c6,8.6,18.2,8.6,23.7,0l49.8-77.4h5.3v18.5
		c0,7.8,6.3,14.1,14.1,14.1h84.5c7.2,0,13.2-5.4,14-12.5C436,442.4,444.8,354.6,351.2,300.2z M160.8,430.4h-56.4
		c1.3-20.9,10.1-63.5,56.4-96.7V430.4z M256,469.8l-28.1-43.7h56.2L256,469.8z M323,397.9H189V162.5c0-37.4,36.5-132.3,67-132.3
		s67,94.9,67,132.3V397.9z M351.2,430.4v-96.7c46.2,33.3,55,75.8,56.4,96.7L351.2,430.4L351.2,430.4z"/>
</g>
</svg>
