<?xml version="1.0" encoding="utf-8"?>
<!-- Generator: Adobe Illustrator 21.0.0, SVG Export Plug-In . SVG Version: 6.00 Build 0)  -->
<svg version="1.1" id="Layer_1" xmlns="http://www.w3.org/2000/svg" xmlns:xlink="http://www.w3.org/1999/xlink" x="0px" y="0px"
	 viewBox="0 0 512 640" style="enable-background:new 0 0 512 640;" xml:space="preserve">
<path d="M495.7,117.6L394.5,16.4c-19.8-19.2-49.5-19.2-69.2,0L63.7,278c-1.7,1.7-3,3.9-3.6,6.2l-57.5,208c-1.4,4.9,0,10.1,3.6,13.7
	c3.6,3.5,8.1,4.8,13.7,3.6l208-57.5c2.3-0.7,4.5-1.9,6.2-3.6l261.6-261.6C514.8,167.7,514.8,136.7,495.7,117.6z M88,293.5l60.5-60.5
	h56.7c7.8,0,14.1-6.3,14.1-14.1s-6.3-14.1-14.1-14.1h-28.5l23.3-23.3h70.8c7.8,0,14.1-6.3,14.1-14.1s-6.3-14.1-14.1-14.1h-42.6
	l49.9-49.9l55.3,55.3l-185,185c-15.2,15.2-40,15.2-55.3,0C71.1,321.8,88.3,293.6,88,293.5z M36.4,475.7l32.4-117.1
	c9.4,14.1,36.9,28.5,60.6,24.1c-4.9,38,22.4,59.2,24.1,60.6L36.4,475.7z M216.8,425.8c0,0-28.2,12.4-48.4-6.9
	c-11.9-11.4-18.3-37,0-55.3l185.1-185.1l55.3,55.3L216.8,425.8z M475.7,166.9l-47,47l-65.2-65.2l0,0l0,0l-65.2-65.2l47-47
	c7.8-7.8,21.5-7.8,29.3,0l101.2,101.2C483.8,145.6,483.8,158.8,475.7,166.9z"/>
</svg>
