<?xml version="1.0" encoding="utf-8"?>
<!-- Generator: Adobe Illustrator 21.0.0, SVG Export Plug-In . SVG Version: 6.00 Build 0)  -->
<svg version="1.1" id="Layer_1" xmlns="http://www.w3.org/2000/svg" xmlns:xlink="http://www.w3.org/1999/xlink" x="0px" y="0px"
	 viewBox="0 0 512 640" style="enable-background:new 0 0 512 640;" xml:space="preserve">
<path d="M501.7,390.5c-4.8-7.1-19.3-28.8-108.8-52.3c-22.6-5.9-38.4-27.1-38.9-51.6c27.7-33.6,45.6-80.4,45.6-130.3
	C399.6,67.5,339.2,3.1,256,3.1S112.4,67.5,112.4,156.3c0,50.7,18.4,98,46.8,131.8c-1.1,23.9-16.6,44.3-38.7,50
	c-90.9,23.5-105.4,45.3-110.2,52.4c-15.1,22.7-5.5,87.4-2.2,106.7c1.2,6.8,7,11.7,13.9,11.7h468c6.9,0,12.7-4.9,13.9-11.7
	C507.2,477.9,516.9,413.2,501.7,390.5z M256,31.3c61,0,105.3,41.5,113.8,103.1c-67.7-12.6-92.5-58.1-93.5-60.2
	c-2.3-4.6-7-7.5-12.1-7.7c-5.1-0.1-9.9,2.5-12.6,6.9c-0.5,0.8-45.9,75.4-111,82.6C140.7,82.6,188.1,31.3,256,31.3z M142.8,184.2
	c58-5.9,101.1-52.7,121-78.8c16.3,19.7,49.8,49.2,107.5,58C368.2,241,314.6,310.1,256,310.1C202.7,310.1,153.6,252.9,142.8,184.2z
	 M337.5,328.7l-81.5,87l-80.7-86.1c3.4-5.6,6.1-11.6,8.1-17.9c21.6,16.8,46.5,26.7,72.6,26.7c26.5,0,51.8-10.2,73.6-27.5
	C331.6,317.1,334.2,323.1,337.5,328.7z M477.9,480.7H34.1c-4.5-31.8-5.7-66.5-0.3-74.5c3.1-4.7,19.2-21.5,93.8-40.8
	c10.8-2.8,20.6-7.8,29-14.6l89.1,95.1c6.8,6.7,15.3,4.8,20.6,0l89.7-95.6c8.6,7,18.7,12.3,29.8,15.3c73.5,19.3,89.4,36,92.5,40.7
	C483.6,414.2,482.4,448.9,477.9,480.7z"/>
</svg>
