<?xml version="1.0" encoding="utf-8"?>
<!-- Generator: Adobe Illustrator 21.0.0, SVG Export Plug-In . SVG Version: 6.00 Build 0)  -->
<svg version="1.1" id="Layer_1" xmlns="http://www.w3.org/2000/svg" xmlns:xlink="http://www.w3.org/1999/xlink" x="0px" y="0px"
	 viewBox="0 0 512 640" style="enable-background:new 0 0 512 640;" xml:space="preserve">
<g>
	<path d="M168.2,276.3c5.2,5.7,15.6,5,20,0c5.5-5.5,5.5-14.4,0-20c-18.9-18.9-29.3-43.9-29.3-70.6s10.4-51.8,29.3-70.6
		c5.5-5.5,5.5-14.4,0-20c-5.5-5.5-14.4-5.5-20,0c-24.2,24.2-37.5,56.4-37.5,90.6S144,252.1,168.2,276.3z"/>
	<path d="M137.5,67.3c5.5-5.5,5.5-14.4,0-20c-5.5-5.5-14.4-5.5-20,0c-76.3,76.3-76.3,200.5,0,276.8c6.1,5.7,14.1,5.4,20,0
		c5.5-5.5,5.5-14.4,0-20C72.2,238.9,72.2,132.6,137.5,67.3z"/>
	<path d="M96.3,26.1c5.5-5.5,5.5-14.4,0-20c-5.5-5.5-14.4-5.5-20,0c-99,99-99,260.2,0,359.2c5.8,5.5,14.4,5.2,20,0
		c5.5-5.5,5.5-14.4,0-20C8.3,257.4,8.3,114.1,96.3,26.1z"/>
	<path d="M353.1,185.7c0,26.7-10.4,51.8-29.3,70.6c-5.5,5.5-5.5,14.4,0,20c4.4,5,14.8,5.7,20,0c24.2-24.2,37.5-56.4,37.5-90.6
		s-13.3-66.4-37.5-90.6c-5.5-5.5-14.4-5.5-20,0c-5.5,5.5-5.5,14.4,0,20C342.7,134,353.1,159.1,353.1,185.7z"/>
	<path d="M394.5,47.3c-5.5-5.5-14.4-5.5-20,0c-5.5,5.5-5.5,14.4,0,20c65.3,65.3,65.3,171.6,0,236.9c-5.5,5.5-5.5,14.4,0,20
		c5.9,5.4,13.8,5.7,20,0C470.8,247.8,470.8,123.7,394.5,47.3z"/>
	<path d="M435.7,6.1c-5.5-5.5-14.4-5.5-20,0c-5.5,5.5-5.5,14.4,0,20c88,88,88,231.3,0,319.3c-5.5,5.5-5.5,14.4,0,20
		c5.6,5.2,14.2,5.5,20,0C534.7,266.3,534.7,105.2,435.7,6.1z"/>
	<path d="M278.7,243.9c24.2-8.3,41.6-31.2,41.6-58.2c0-34-27.6-61.6-61.6-61.6s-61.6,27.6-61.6,61.6c0,28.1,18.8,51.7,44.6,59.1
		l-78.9,246.7c-3.2,8,3.6,18.4,13.4,18.4h168.1c9.7,0,16.3-9.4,13.4-18.4L278.7,243.9z M225.4,185.7c0-18.4,14.9-33.4,33.4-33.4
		s33.4,14.9,33.4,33.4s-14.9,33.4-33.4,33.4S225.4,204.2,225.4,185.7z M195.7,481.8l7.8-24.3h34.7c7.8,0,14.1-6.3,14.1-14.1
		c0-7.8-6.3-14.1-14.1-14.1h-25.7l9-28.2h44.9c7.8,0,14.1-6.3,14.1-14.1c0-7.8-6.3-14.1-14.1-14.1h-35.9l29.9-93.5l64.7,202.5
		L195.7,481.8L195.7,481.8z"/>
</g>
</svg>
