<svg xmlns="http://www.w3.org/2000/svg" xmlns:xlink="http://www.w3.org/1999/xlink" version="1.1" x="0px" y="0px" viewBox="0 0 50 62.5" style="enable-background:new 0 0 50 50;" xml:space="preserve"><style type="text/css">
	.st0{fill:none;stroke:#000000;stroke-width:2;stroke-miterlimit:10;}
	.st1{fill:none;stroke:#000000;stroke-width:2;stroke-linejoin:round;stroke-miterlimit:10;}
	.st2{fill:none;stroke:#000000;stroke-width:2;stroke-linejoin:round;stroke-miterlimit:10;stroke-dasharray:2,2;}
	.st3{fill:none;stroke:#000000;stroke-width:2;stroke-linecap:round;stroke-miterlimit:10;}
	.st4{fill:none;stroke:#000000;stroke-width:2;stroke-miterlimit:10;stroke-dasharray:2,2;}
	.st5{fill:none;stroke:#000000;stroke-width:2;stroke-linejoin:bevel;stroke-miterlimit:10;}
	.st6{fill:none;stroke:#000000;stroke-width:2;stroke-miterlimit:10;stroke-dasharray:2.0674,3.1011;}
	.st7{fill:none;stroke:#000000;stroke-width:2;stroke-miterlimit:10;stroke-dasharray:2,4;}
	.st8{fill:none;stroke:#000000;stroke-width:2;stroke-miterlimit:10;stroke-dasharray:2,3;}
</style><g><ellipse transform="matrix(0.7071 -0.7071 0.7071 0.7071 -7.6463 18.4598)" class="st0" cx="18.5" cy="18.5" rx="16.5" ry="16.5"/><path class="st1" d="M30.8,37.2l6.3-6.3c0.4-0.4,1-0.4,1.4,0l7.8,7.8c2.1,2.1,2.1,5.6,0,7.8l0,0c-2.1,2.1-5.6,2.1-7.8,0l-7.8-7.8   C30.4,38.2,30.4,37.5,30.8,37.2z"/><line class="st0" x1="35.5" y1="32.4" x2="31.4" y2="28.3"/><line class="st0" x1="32.4" y1="35.5" x2="28.3" y2="31.4"/><line class="st2" x1="37.9" y1="37.9" x2="42.5" y2="42.5"/><circle class="st0" cx="18.5" cy="12.5" r="4.5"/><path class="st0" d="M30,30.2v-4.6c0-3-2.2-5.6-5.1-6.5l-0.8-0.2l-5.7,5.7l-5.7-5.7L12,19.1c-2.9,0.9-5,3.5-5,6.5v4.6"/></g><text x="0" y="65" fill="#000000" font-size="5px" font-weight="bold" font-family="'Helvetica Neue', Helvetica, Arial-Unicode, Arial, Sans-serif">Created by Dinosoft Labs</text><text x="0" y="70" fill="#000000" font-size="5px" font-weight="bold" font-family="'Helvetica Neue', Helvetica, Arial-Unicode, Arial, Sans-serif">from the Noun Project</text></svg>