<?xml version="1.0" encoding="utf-8"?>
<!-- Generator: Adobe Illustrator 21.0.0, SVG Export Plug-In . SVG Version: 6.00 Build 0)  -->
<svg version="1.1" id="Layer_1" xmlns="http://www.w3.org/2000/svg" xmlns:xlink="http://www.w3.org/1999/xlink" x="0px" y="0px"
	 viewBox="0 0 512 640" style="enable-background:new 0 0 512 640;" xml:space="preserve">
<path d="M500.4,132.2L463.9,30.1C455.3,8,433.3-3.4,409.8,4.5l-32.5,11.6H51.4c-23.3,0-42.3,19-42.3,42.3V363
	c0,23.3,19,42.3,42.3,42.3h126.4v19.9H113c-38.9,0-70.5,31.6-70.5,70.5c0,7.8,6.3,14.1,14.1,14.1h384.9c7.8,0,14.1-6.3,14.1-14.1
	c0-38.9-31.7-70.5-70.5-70.5h-64.8v-19.9h126.3c23.3,0,42.3-19,42.3-42.3V178C501.2,166.8,506.4,148.9,500.4,132.2z M437.7,40.4
	l36.2,101.3c2.6,7.3-1.2,15.4-8.5,18l-181.5,64.9c-7.3,2.6-15.5-1.4-18-8.5L230,116l122.8,41.3c5.7,2.1,13.2-0.1,16.5-6L437.7,40.4z
	 M351.2,127l-103-34.7l159.5-57L351.2,127z M385,453.6c18.4,0,34.1,11.8,39.9,28.2H73c5.8-16.4,21.5-28.2,39.9-28.2h78.9
	c7.8,0,14.1-6.3,14.1-14.1v-34h85.9v34c0,7.8,6.3,14.1,14.1,14.1H385z M460.6,363.1c0,7.8-6.3,14.1-14.1,14.1H442v-9.1
	c0-7.8-6.3-14.1-14.1-14.1s-14.1,6.3-14.1,14.1v9.1h-28.2v-9.1c0-7.8-6.3-14.1-14.1-14.1s-14.1,6.3-14.1,14.1v9.1h-306
	c-7.8,0-14.1-6.3-14.1-14.1v-40.6h423.3L460.6,363.1L460.6,363.1z M37.3,294.3v-60h18.5c7.8,0,14.1-6.3,14.1-14.1S63.6,206,55.8,206
	H37.3v-28.2H84c7.8,0,14.1-6.3,14.1-14.1s-6.3-14.1-14.1-14.1H37.3V58.5c0-7.8,6.3-14.1,14.1-14.1h247l-70.1,25.1
	c-20.9,7.5-33.9,32.2-25.6,54.1l36.5,102.1c7.9,22.4,33.8,33.4,54.1,25.6l167.3-59.8v102.8H37.3z"/>
</svg>
