<?xml version="1.0" encoding="utf-8"?>
<!-- Generator: Adobe Illustrator 21.0.0, SVG Export Plug-In . SVG Version: 6.00 Build 0)  -->
<svg version="1.1" id="Layer_1" xmlns="http://www.w3.org/2000/svg" xmlns:xlink="http://www.w3.org/1999/xlink" x="0px" y="0px"
	 viewBox="0 0 512 640" style="enable-background:new 0 0 512 640;" xml:space="preserve">
<g>
	<path d="M298.3,179.3c-71.5,0-129.6,58.2-129.6,129.6s58.2,129.6,129.6,129.6S428,380.4,428,308.9S369.8,179.3,298.3,179.3z
		 M298.3,410.3c-55.9,0-101.4-45.5-101.4-101.4s45.5-101.4,101.4-101.4S399.8,253,399.8,308.9S354.3,410.3,298.3,410.3z"/>
	<path d="M298.3,235.7c-7.8,0-14.1,6.3-14.1,14.1s6.3,14.1,14.1,14.1c24.8,0,45,20.2,45,45c0,7.8,6.3,14.1,14.1,14.1
		s14.1-6.3,14.1-14.1C371.5,268.6,338.7,235.7,298.3,235.7z"/>
	<path d="M439.5,179.3h-18.4c-7.8,0-14.1,6.3-14.1,14.1s6.3,14.1,14.1,14.1h18.4c7.8,0,14.1-6.3,14.1-14.1S447.3,179.3,439.5,179.3z
		"/>
	<path d="M122.7,199.9c-7.8,0-14.1,6.3-14.1,14.1v199.7c0,7.8,6.3,14.1,14.1,14.1s14.1-6.3,14.1-14.1V214
		C136.8,206.2,130.5,199.9,122.7,199.9z"/>
	<path d="M358.6,69.9h-64c-7.8,0-14.1,6.3-14.1,14.1s6.3,14.1,14.1,14.1h64c7.8,0,14.1-6.3,14.1-14.1S366.4,69.9,358.6,69.9z"/>
	<path d="M467.7,122.8H444l-19.2-74.1C420,30,403.1,17,383.8,17H269.3c-19.3,0-36.2,13.1-41,31.7l-19.2,74.1h-62.6v-14.1
		c0-23.3-19-42.3-42.3-42.3h-17c-23.3,0-42.3,19-42.3,42.3v14.1h-0.5C21,122.8,2,141.8,2,165.1v287.5C2,476,21,495,44.3,495h423.3
		c23.3,0,42.3-19,42.3-42.3V165.1C510,141.8,491,122.8,467.7,122.8z M255.6,55.8c1.6-6.2,7.2-10.6,13.7-10.6h114.6
		c6.4,0,12,4.4,13.7,10.6l17.3,67H238.3L255.6,55.8z M73.1,108.7c0-7.8,6.3-14.1,14.1-14.1h17.1c7.8,0,14.1,6.3,14.1,14.1v14.1H73.1
		V108.7z M481.8,452.7c0,7.8-6.3,14.1-14.1,14.1H44.3c-7.8,0-14.1-6.3-14.1-14.1V289.9h14.6c7.8,0,14.1-6.3,14.1-14.1
		c0-7.8-6.3-14.1-14.1-14.1H30.2v-42.3H73c7.8,0,14.1-6.3,14.1-14.1s-6.3-14.1-14.1-14.1H30.2v-26c0-7.8,6.3-14.1,14.1-14.1h423.3
		c7.8,0,14.1,6.3,14.1,14.1v287.5H481.8z"/>
</g>
</svg>
