<svg xmlns="http://www.w3.org/2000/svg" xmlns:xlink="http://www.w3.org/1999/xlink" version="1.1" x="0px" y="0px" viewBox="0 0 512 640" enable-background="new 0 0 512 512" xml:space="preserve"><g><path d="M498.2,256c0-133.5-108.6-242.2-242.2-242.2S13.8,122.5,13.8,256c0,23.7,3.5,47.1,10.3,69.6c-6.4,7.1-10.3,16.5-10.3,26.8   v105.4c0,22.3,18.1,40.4,40.4,40.4h403.6c22.3,0,40.4-18.1,40.4-40.4V352.4c0-10.3-3.9-19.7-10.3-26.8   C494.7,303.1,498.2,279.7,498.2,256z M470.8,242.5h-87.7c-0.9-33.4-5.2-64.8-12.3-92.9c20.4-6.9,38.9-15.7,54.6-26.1   C451.5,156.7,468,197.8,470.8,242.5z M470.8,269.5c-0.9,14.6-3.4,29-7.2,43.1c-1.9-0.3-3.8-0.5-5.8-0.5h-77.9   c1.7-14,2.8-28.2,3.3-42.6H470.8z M407.4,103.1c-12.8,8.1-27.7,15.1-44.1,20.7c-9.7-28.7-22.5-53-37.6-71.5   C356.7,63,384.5,80.5,407.4,103.1z M269.5,42.8c27.6,8.3,52,41.7,67.9,88.6c-21.2,5.1-44.2,8.2-67.9,9.1V42.8z M269.5,167.5   c26.2-0.9,51.7-4.4,75.4-10.2c6.5,26,10.5,54.9,11.4,85.3h-86.8V167.5z M269.5,269.5h86.8c-0.4,14.5-1.6,28.7-3.4,42.6h-83.4V269.5   z M242.5,42.8v97.7c-23.7-0.9-46.6-4-67.9-9.1C190.6,84.5,215,51.1,242.5,42.8z M155.7,242.5c0.9-30.4,5-59.3,11.4-85.3   c23.7,5.8,49.2,9.3,75.4,10.2v75.1H155.7z M242.5,269.5v42.6h-83.4c-1.8-13.9-3-28.2-3.4-42.6H242.5z M186.3,52.4   c-15.1,18.4-27.9,42.8-37.6,71.5c-16.4-5.7-31.3-12.6-44.1-20.7C127.5,80.5,155.3,63,186.3,52.4z M86.6,123.5   c15.6,10.4,34.1,19.2,54.6,26.1c-7.1,28.2-11.4,59.6-12.3,92.9H41.2C44,197.8,60.5,156.7,86.6,123.5z M132.1,312.1H54.2   c-2,0-3.9,0.2-5.8,0.5c-3.8-14.1-6.3-28.5-7.2-43.1h87.6C129.3,283.9,130.4,298.1,132.1,312.1z M471.2,457.8   c0,7.4-6,13.5-13.5,13.5H54.2c-7.4,0-13.5-6-13.5-13.5V352.4c0-7.4,6-13.5,13.5-13.5h403.6c7.4,0,13.5,6,13.5,13.5V457.8z"/><polygon points="152.4,417.5 137.3,371 116.6,371 101.6,417.5 86.6,371 64.4,371 90.6,448 112.7,448 127,406.1 141.2,448    163.5,448 189.7,371 167.4,371  "/><polygon points="281.3,417.5 266.3,371 245.6,371 230.5,417.5 215.5,371 193.4,371 219.5,448 241.7,448 256,406.1 270.1,448    292.5,448 318.6,371 296.3,371  "/><polygon points="410.3,417.5 395.2,371 374.5,371 359.5,417.5 344.5,371 322.3,371 348.5,448 370.7,448 384.9,406.1 399.1,448    421.4,448 447.6,371 425.3,371  "/></g><text x="0" y="527" fill="#000000" font-size="5px" font-weight="bold" font-family="'Helvetica Neue', Helvetica, Arial-Unicode, Arial, Sans-serif">Created by Icon Fair</text><text x="0" y="532" fill="#000000" font-size="5px" font-weight="bold" font-family="'Helvetica Neue', Helvetica, Arial-Unicode, Arial, Sans-serif">from the Noun Project</text></svg>