<svg xmlns="http://www.w3.org/2000/svg" xmlns:xlink="http://www.w3.org/1999/xlink" version="1.1" x="0px" y="0px" viewBox="0 0 50 62.5" style="enable-background:new 0 0 50 50;" xml:space="preserve"><style type="text/css">
	.st0{fill:none;stroke:#000000;stroke-width:2;stroke-miterlimit:10;}
	.st1{fill:none;stroke:#000000;stroke-width:2;stroke-linejoin:round;stroke-miterlimit:10;}
	.st2{fill:none;stroke:#000000;stroke-width:2;stroke-linejoin:round;stroke-miterlimit:10;stroke-dasharray:2,2;}
	.st3{fill:none;stroke:#000000;stroke-width:2;stroke-linecap:round;stroke-miterlimit:10;}
	.st4{fill:none;stroke:#000000;stroke-width:2;stroke-miterlimit:10;stroke-dasharray:2,2;}
	.st5{fill:none;stroke:#000000;stroke-width:2;stroke-linejoin:bevel;stroke-miterlimit:10;}
	.st6{fill:none;stroke:#000000;stroke-width:2;stroke-miterlimit:10;stroke-dasharray:2.0674,3.1011;}
	.st7{fill:none;stroke:#000000;stroke-width:2;stroke-miterlimit:10;stroke-dasharray:2,4;}
	.st8{fill:none;stroke:#000000;stroke-width:2;stroke-miterlimit:10;stroke-dasharray:2,3;}
</style><g><ellipse transform="matrix(0.7071 -0.7071 0.7071 0.7071 -10.5656 25.0871)" class="st0" cx="25" cy="25.3" rx="10" ry="10"/><circle class="st0" cx="25" cy="21.4" r="2.8"/><path class="st0" d="M32,32.1v-2.5c0-1.8-1.3-3.4-3.1-3.9l-0.5-0.1L25,29l-3.4-3.4l-0.5,0.1c-1.7,0.5-3.1,2.1-3.1,4v2.8"/><circle class="st0" cx="25" cy="6" r="4"/><circle class="st0" cx="25" cy="44" r="4"/><circle class="st0" cx="44" cy="25" r="4"/><circle class="st0" cx="6" cy="25" r="4"/><path class="st4" d="M43.6,29C42,36.3,36.3,42,29,43.6"/><path class="st4" d="M29,6.4C36.3,8,42,13.7,43.6,21"/><path class="st4" d="M6.4,21C8,13.7,13.7,8,21,6.4"/><path class="st4" d="M21,43.6C13.7,42,8,36.3,6.4,29"/></g><text x="0" y="65" fill="#000000" font-size="5px" font-weight="bold" font-family="'Helvetica Neue', Helvetica, Arial-Unicode, Arial, Sans-serif">Created by Dinosoft Labs</text><text x="0" y="70" fill="#000000" font-size="5px" font-weight="bold" font-family="'Helvetica Neue', Helvetica, Arial-Unicode, Arial, Sans-serif">from the Noun Project</text></svg>