<?xml version="1.0" encoding="utf-8"?>
<!-- Generator: Adobe Illustrator 21.0.0, SVG Export Plug-In . SVG Version: 6.00 Build 0)  -->
<svg version="1.1" id="Layer_1" xmlns="http://www.w3.org/2000/svg" xmlns:xlink="http://www.w3.org/1999/xlink" x="0px" y="0px"
	 viewBox="0 0 50 62.5" style="enable-background:new 0 0 50 62.5;" xml:space="preserve">
<style type="text/css">
	.st0{fill:none;stroke:#000000;stroke-width:2;stroke-miterlimit:10;}
</style>
<g>
	<rect x="28" y="2" class="st0" width="11" height="46"/>
	<line class="st0" x1="28" y1="41" x2="33" y2="41"/>
	<line class="st0" x1="28" y1="33" x2="32" y2="33"/>
	<line class="st0" x1="28" y1="25" x2="33" y2="25"/>
	<line class="st0" x1="28" y1="17" x2="32" y2="17"/>
	<line class="st0" x1="28" y1="9" x2="33" y2="9"/>
	<g>
		<path class="st0" d="M16.4,2c0.1-0.1,0.2,0,0.2,0.2c-0.3,0.9-1,3.6,1.1,6.3c0,0,2.5,3.2,0.5,5.9c-1,1.3-2.8,1.7-4.4,1.1h-0.1
			c-1.3-0.6-2.1-1.8-2.4-3.1C10.8,9.8,10.8,5.3,16.4,2z"/>
		<path class="st0" d="M19.1,26.5c0,8.9-1.8,21.5-4,21.5s-4-12.6-4-21.5s1.8-10.8,4-10.8S19.1,17.6,19.1,26.5z"/>
	</g>
	<line class="st0" x1="11.3" y1="21" x2="18.7" y2="21"/>
</g>
</svg>
