<?xml version="1.0" encoding="iso-8859-1"?>
<!-- Generator: Adobe Illustrator 19.1.0, SVG Export Plug-In . SVG Version: 6.00 Build 0)  -->
<svg version="1.1" id="Layer_1" xmlns="http://www.w3.org/2000/svg" xmlns:xlink="http://www.w3.org/1999/xlink" x="0px" y="0px"
	 viewBox="0 0 523.707 153.528" style="enable-background:new 0 0 523.707 153.528;" xml:space="preserve">
<polygon style="fill:#FFFFFF;" points="15.169,40.824 0,40.824 21.405,81.166 37.398,81.166 15.169,40.824 "/>
<polygon style="fill:#FFFFFF;" points="109.259,0.175 94.85,0.175 94.85,18.396 45.089,18.396 45.089,69.952 59.5,69.952 
	59.5,30.705 92.849,30.705 47.686,153.528 62.488,153.528 107.651,30.705 145.31,30.705 145.31,69.952 159.72,69.952 159.72,18.396 
	109.259,18.396 109.259,0.175 "/>
<polygon style="fill:#FFFFFF;" points="520.852,11.41 441.262,11.41 441.262,23.718 465.894,23.718 447.339,74.179 462.493,74.179 
	481.047,23.718 506.441,23.718 506.441,55.914 474.206,55.914 481.043,68.222 520.852,68.222 520.852,11.41 "/>
<path style="fill:#FFFFFF;" d="M514.15,81.187"/>
<path style="fill:#FFFFFF;" d="M446.322,78.187v56.461h56.624l20.761-56.461H446.322z M492.318,122.34h-31.585V90.494h43.295
	L492.318,122.34z"/>
<polygon style="fill:#FFFFFF;" points="407.118,0 392.707,0 392.707,15.069 363.272,15.069 363.272,27.376 392.707,27.376 
	392.707,53.965 359.066,53.965 359.066,66.273 440.758,66.273 440.758,53.965 407.118,53.965 407.118,27.376 438.656,27.376 
	438.656,15.069 407.118,15.069 407.118,0 "/>
<polygon style="fill:#FFFFFF;" points="364.332,151.853 353.076,151.853 367.926,111.469 367.926,76.49 379.335,76.49 
	379.335,108.219 397.713,123.282 397.713,68.781 409.122,68.781 409.122,92.609 437.857,92.609 437.857,101.918 409.122,101.918 
	409.122,131.336 419.36,139.493 523.707,139.493 518.537,150.801 414.461,150.801 375.896,120.401 "/>
<path style="fill:#FFFFFF;" d="M21.106,4.577"/>
<polygon style="fill:#FFFFFF;" points="22.961,1.577 7.491,1.577 25.911,38.413 41.38,38.413 22.961,1.577 "/>
<polygon style="fill:#FFFFFF;" points="248.377,0.175 234.317,0.175 234.317,23.654 186.659,23.654 186.659,35.962 189.659,35.962 
	231.603,35.962 188.152,153.178 202.616,153.178 245.717,35.962 321.123,35.962 317.812,138.767 270.062,138.767 276.902,151.075 
	332.043,151.075 335.72,23.654 248.377,23.654 248.377,0.175 "/>
<polygon style="fill:#FFFFFF;" points="42.433,88.832 27.631,88.832 3.842,153.528 18.644,153.528 42.433,88.832 "/>
<polygon style="fill:#FFFFFF;" points="114.865,67.457 100.456,67.457 100.456,151.776 161.653,151.776 164.013,111.073 
	151.255,101.503 148.988,139.468 114.865,139.468 114.865,67.457 "/>
</svg>
